<?xml version="1.0" encoding="UTF-8" standalone="no"?>
<svg xmlns="http://www.w3.org/2000/svg" xmlns:xlink="http://www.w3.org/1999/xlink" width="297.000mm" height="210.000mm" viewBox="0.000000 0.000000 297.000000 210.000000" stroke-linejoin="round" stroke-linecap="round" fill="none" fill-rule="evenodd"><desc>3DVIA Composer Export</desc><script type="text/ecmascript"><![CDATA[
if(typeof(top) != "undefined")
{
	top.ShowPaper = ShowPaper;
}
function ShowHotSpot(evt,hotspotid)
{
	var svgDocument = evt.target.ownerDocument;
	var strId = "hotspot."+hotspotid;
	var hotspot = svgDocument.getElementById(strId);
	if(hotspot)
		hotspot.setAttribute("opacity",".5");
}
function HideHotSpot(evt,hotspotid)
{
	var svgDocument = evt.target.ownerDocument;
	var strId = "hotspot."+hotspotid;
	var hotspot = svgDocument.getElementById(strId);
	if(hotspot)
		hotspot.setAttribute("opacity","0");

	var toolTip = svgDocument.getElementById('ToolTip');
	if(toolTip)
		toolTip.setAttribute("visibility","hidden");
}
function ShowToolTip(evt,hotspotid,strTooltip)
{
	if(strTooltip=="")
	return;

	// change text
	var svgDocument = evt.target.ownerDocument;
	var tiptext = svgDocument.getElementById('ToolTipText');
	if( !tiptext )
	return;
	tiptext.firstChild.nodeValue = " " + strTooltip + "  " ;

	// show tooltip before, else some refresh issue

	var toolTip = svgDocument.getElementById('ToolTip');
	if(!toolTip)
	return;

	toolTip.setAttribute("visibility","visible");
	toolTip.setAttribute("opacity",".95");

	// move tooltip
	// get viewbox

	var root = svgDocument.documentElement;
	var vbox = (root.getAttribute("viewBox")).split(' ');
	var x0 = parseFloat(vbox[0]);
	var y0 = parseFloat(vbox[1]);
	var vboxW = parseFloat(vbox[2]);
	var vboxH = parseFloat(vbox[3]);

	// get default width of svg

	var strW = root.getAttribute("width");
	var svgW = parseFloat(strW);
	if(strW.indexOf('mm') != -1)
	svgW *= 3.779;

	var strH = root.getAttribute("height");
	var svgH = parseFloat(strH);
	if(strH.indexOf('mm') != -1)
	svgH *= 3.779;  	// 96 dpi  -> 96/25.4 = 3.779

	// update the viewbox / width / height if svg is embedded in html with zoom fit all
	var realx0 = x0;
	var realy0 = y0;
	var realvboxW = vboxW;
	var realvboxH = vboxH;
	var realsvgW = svgW;
	var realsvgH = svgH;

	if ((typeof(top) == "undefined") || (typeof(top.svgctl1) != "undefined")) // embedded in html
	{
		// get window size in pxl

		svgW = window.innerWidth;
		svgH = window.innerHeight;

		// calculate real viewbox

		realsvgW = svgW;
		realsvgH = svgH;
		if((svgW / svgH) > (vboxW / vboxH))
		{
			realvboxW = (vboxH * svgW) / svgH;
			realvboxH = vboxH;
			realx0 = x0 - (realvboxW - vboxW)/2 ;
		}
		else
		{
			realvboxH = (vboxW * svgH) / svgW;
			realvboxW = vboxW;
			realy0 = y0 - (realvboxH - vboxH)/2 ;
		}
	}

	// get user zoom/pan

	var newScale = root.currentScale;
	var translation = root.currentTranslate;

	// transform pxl to user unit

	var xPos = (((evt.clientX+10- translation.x)/newScale) * realvboxW)/realsvgW  + realx0 ;
	var yPos = (((evt.clientY+5- translation.y)/newScale) * realvboxH)/ realsvgH  + realy0 ;
	var scaleForWidth = ( (1 / newScale) * realvboxH) / realsvgH;

	// move tooltip

	toolTip.setAttribute("transform", "translate(" + xPos + "," + yPos + ")" );

	// resize tooltip

	var fontsize = 12;
	tiptext.setAttribute("font-size",fontsize*scaleForWidth);
	tiptext.setAttribute("y", fontsize*scaleForWidth);
	var tipBG = svgDocument.getElementById('ToolTipBG');
	var outline = tiptext.getBBox();
	if(tipBG)
	{
		tipBG.setAttribute("stroke-width", 1*scaleForWidth);
		tipBG.setAttribute("width", Number(outline.width) );
		tipBG.setAttribute("height", Number(outline.height) + fontsize*.5*scaleForWidth );
	}
	var ToolTipShadow = svgDocument.getElementById('ToolTipShadow');
	if(ToolTipShadow)
	{
		ToolTipShadow.setAttribute("width", Number(outline.width) );
		ToolTipShadow.setAttribute("height", Number(outline.height) + fontsize*.5*scaleForWidth );
		ToolTipShadow.setAttribute("x", 3*scaleForWidth);
		ToolTipShadow.setAttribute("y", 3*scaleForWidth);
	}
}
function ShowPaper()
{
  var svgDocument = getDocument();
  var paper = svgDocument.getElementById("paperID");
  if(paper)
  {
    paper.setAttribute("transform","scale(1)");
    paper.setAttribute("opacity","1");
    paper.setAttribute("visibility","visible");
  }
  var svg = svgDocument.getRootElement();
  if(svg)
  {
    svg.setAttribute("width","307.000mm");
    svg.setAttribute("height","220.000mm");
    svg.setAttribute("viewBox","-5.000000 -5.000000 307.000000 220.000000");
  }
}
]]></script><defs/><g><path style="fill:#000000;fill-opacity:0.098;fill-rule:evenodd" d="M254.91,36.36L253.43,36.83L252.90,35.06L253.91,34.58L254.20,34.59zM260.63,41.52L261.82,46.04L262.54,51.27L262.54,55.63L262.23,58.99L263.47,58.88L263.73,59.60L263.73,61.35L263.49,62.06L262.29,63.05L261.80,62.71L261.29,62.67L260.57,62.96L259.68,62.96L259.67,61.34L260.40,57.78L260.40,50.56L259.44,45.09L258.47,41.76L258.40,41.05L260.18,40.34zM266.61,58.15L266.82,59.13L266.83,62.07L266.12,63.74L264.59,64.63L264.11,64.61L264.92,63.49L265.16,62.78L265.16,59.84L264.80,58.39L265.80,57.92L266.37,57.89zM258.02,61.98L258.02,64.92L257.78,65.63L256.97,66.73L254.37,67.73L253.76,67.73L85.55,129.39L84.94,129.38L83.96,127.69L81.82,128.20L81.82,126.34L82.54,122.54L82.54,115.80L81.58,110.33L80.62,107.00L80.55,106.04L81.75,105.53L82.32,105.51L82.56,105.77L83.96,111.27L84.68,116.75L84.68,120.39L84.37,124.23L132.06,106.82L253.74,62.27L254.19,62.25L254.44,62.52L254.62,62.01L257.56,60.99zM264.03,62.93L263.98,63.27L263.40,63.26L263.40,62.69L263.74,62.64zM269.12,72.74L277.09,69.85L277.08,71.84L276.87,72.11L268.90,75.09L268.48,75.86L266.97,76.53L266.50,76.52L266.83,76.12L266.77,73.16L268.74,72.52zM265.65,73.41L265.11,73.66L264.12,73.74L264.19,72.76L265.14,72.70zM76.84,100.79L76.83,101.58L75.64,102.08L75.14,100.80L75.07,100.09L76.36,99.63zM75.20,122.45L75.09,123.19L74.19,123.18L74.16,122.52L74.38,122.21L74.93,122.17zM78.97,124.37L78.97,125.15L78.01,125.33L78.02,124.44L78.52,124.12zM76.02,127.24L77.78,126.73L77.77,128.75L78.28,128.18L78.29,128.73L77.71,129.15L75.78,129.13L76.13,128.50zM78.97,129.61L78.97,130.39L78.67,130.60L78.01,130.58L78.02,129.68L78.52,129.35zM62.55,132.65L62.55,134.94L62.28,135.40L62.32,132.42zM61.85,132.90L61.84,134.69L61.49,135.30L58.25,136.58L57.45,136.83L57.77,133.96L61.61,132.66zM56.86,133.66L56.83,134.19L56.28,134.38L54.85,134.71L54.92,133.02L55.32,132.67L55.87,132.67zM41.37,136.00L41.30,136.27L40.54,136.36L40.61,135.86L41.14,135.76zM40.88,137.92L41.87,139.38L41.83,139.67L39.36,140.58L38.97,140.58L38.63,138.65L39.13,137.70L40.41,137.69zM47.81,138.15L47.79,140.65L47.29,141.57L45.33,142.47L44.92,143.97L43.86,145.33L43.40,145.33L44.21,143.50L44.20,141.04L43.88,139.15L46.99,137.92L47.55,137.89zM91.11,138.41L91.12,139.93L90.65,140.89L89.37,141.53L88.64,141.52L88.97,141.12L88.95,138.26L90.86,137.69zM37.86,139.74L37.30,140.18L37.22,139.60L37.79,139.59zM28.74,140.88L28.16,140.89L28.24,140.38L28.75,140.31zM78.74,141.73L78.45,142.02L77.76,142.00L77.77,141.33L78.25,141.24zM43.04,143.85L42.96,144.13L42.21,144.21L42.28,143.72L42.81,143.62zM88.49,140.40L88.17,141.26L81.10,143.96L79.85,144.23L79.91,143.00L80.55,142.22L88.52,139.38zM32.31,144.36L32.54,147.30L32.06,148.97L31.34,149.69L31.32,149.22L31.82,147.78L31.82,145.56L31.50,143.64L32.04,143.64zM25.39,144.45L24.80,144.66L24.83,144.13L25.18,144.08zM30.41,148.74L29.83,148.75L29.90,148.24L30.41,148.16z"/><g id="Actor_7.0"><g style="stroke:#000000;stroke-width:0.176"><path d="M253.27,36.53L254.70,36.01L254.73,36.11L254.88,36.36L254.97,36.65L255.00,36.93L254.97,37.18L254.87,37.36L254.72,37.46L254.11,37.64L253.93,37.64L253.74,37.54L253.55,37.35L253.40,37.10L253.30,36.82L253.27,36.53L252.74,34.98"/><path d="M254.70,36.01L254.20,34.55L254.63,34.72L255.06,34.99L255.47,35.36L255.86,35.82L256.21,36.34L256.51,36.92L257.24,38.59L257.89,40.26L258.48,41.98L259.00,43.71L259.43,45.41L259.81,47.19L260.10,48.92L260.32,50.63L260.45,52.32L260.50,53.98L260.48,55.60L260.37,57.17L260.18,58.68L259.92,60.14L259.57,61.52L259.50,61.92L259.50,62.38L259.58,62.86L259.73,63.34L259.94,63.79L260.20,64.19L265.90,71.75L266.23,72.26L266.51,72.82L266.73,73.42L266.88,74.04L266.95,74.64L266.94,75.21L266.85,75.73L266.68,76.17L266.44,76.52L266.14,76.76L265.80,76.89"/><path d="M254.20,34.55L254.78,34.34"/><path d="M264.00,73.28L264.00,73.32L264.04,73.71L264.16,74.10L264.34,74.46L264.58,74.75L264.84,74.94L265.10,75.02L265.34,74.97L265.52,74.81L265.64,74.54L265.69,74.20L265.64,73.81L265.52,73.42L265.34,73.06L265.10,72.77L264.84,72.58L264.58,72.50L264.34,72.55L264.16,72.71L264.04,72.98L264.00,73.28"/><path d="M267.81,76.15L267.80,76.16"/></g><g style="stroke:#000000;stroke-width:0.529"><path d="M255.11,67.45L264.19,76.24L264.60,76.57L265.01,76.79L265.41,76.90L265.80,76.89L268.15,76.02L268.45,75.78L268.69,75.43L268.86,74.99L268.95,74.48L268.96,73.91L268.89,73.30L268.74,72.69L268.52,72.09L268.24,71.52L267.91,71.01L262.21,63.46L261.95,63.05L261.74,62.60L261.59,62.12L261.51,61.64L261.51,61.19L261.58,60.78L261.92,59.40L262.19,57.95L262.38,56.43L262.49,54.86L262.51,53.25L262.46,51.59L262.33,49.90L262.11,48.18L261.82,46.45L261.45,44.71L261.01,42.97L260.49,41.24L259.90,39.53L259.24,37.84L258.52,36.18L258.22,35.60L257.87,35.08L257.48,34.63L257.07,34.26L256.64,33.99L256.21,33.82L254.78,34.34L254.75,34.24L252.74,34.98L252.50,35.32L252.33,35.74L252.21,36.23L252.17,36.78L252.19,37.36L252.27,37.96L252.42,38.57L252.85,40.11L253.21,41.66L253.50,43.21L253.71,44.74L253.84,46.26L253.90,47.74L253.88,49.18L253.79,50.58L253.62,51.93L253.37,53.21L253.05,54.43L252.66,55.58L252.20,56.64L252.03,56.95"/></g></g><g id="Actor_5.0"><g style="stroke:#000000;stroke-width:0.176"><path d="M73.59,126.59L73.59,126.52"/><path d="M74.42,129.10L74.73,129.32L75.10,129.42L75.33,129.41L75.58,129.27L75.77,129.02L75.89,128.68L75.93,128.27L75.89,127.81L75.77,127.35L75.58,126.90L75.33,126.51L75.04,126.19L74.73,125.97L74.42,125.87L74.13,125.89L73.89,126.02L73.70,126.27L73.58,126.61"/><path d="M74.49,129.16L74.47,129.14"/><path d="M75.45,129.48L75.71,129.33L75.91,129.07L76.04,128.71L76.08,128.27L76.04,127.79L75.91,127.30L75.71,126.83L75.45,126.41L75.14,126.07L74.82,125.84L74.49,125.73L74.18,125.75"/><path d="M75.44,125.06L75.26,125.36L75.94,125.11L76.25,125.09L76.58,125.20L76.90,125.43L77.21,125.76L77.47,126.18L77.67,126.65L77.80,127.15L77.84,127.63L77.80,128.06L77.67,128.43L77.47,128.69L77.21,128.84L76.61,129.05L77.00,129.17L77.32,129.15L77.59,129.00L77.81,128.75L77.97,128.40L78.05,127.97L78.05,127.49L77.97,126.98L77.81,126.47L77.59,126.00L77.32,125.56L77.00,125.21L76.66,124.95L76.32,124.80L75.99,124.77L75.68,124.86L75.44,125.06"/><path d="M77.59,129.16L77.43,129.22L77.72,129.07L77.95,128.80L78.11,128.44L78.20,127.99L78.21,127.74L78.11,126.95L77.95,126.42L77.72,125.92L77.43,125.47L77.10,125.10L76.75,124.83L76.39,124.67L76.04,124.63L75.73,124.73L75.47,124.94L75.34,125.14"/><path d="M75.73,124.73L75.89,124.67"/><path d="M76.61,129.05L76.59,129.06"/><path d="M77.43,129.22L77.10,129.25L76.83,129.17"/><path d="M84.38,122.40L84.59,122.76L84.95,123.53L85.24,124.34L85.45,125.16L85.58,125.98L85.62,126.77L85.58,127.52L85.45,128.21L85.24,128.81L84.92,129.35"/><path d="M252.33,68.28L252.98,68.04L253.43,67.84L253.83,67.51L254.15,67.07L254.41,66.52L254.58,65.89L254.67,65.18L254.67,64.41L254.58,63.61L254.41,62.81L254.15,61.98L253.72,61.01L253.43,60.47L252.98,59.80L252.40,59.14L251.96,58.73L251.42,58.36L250.88,58.11L250.32,57.98L249.80,57.99L248.71,58.36"/><path d="M249.21,57.98L249.68,57.82L250.19,57.79L250.73,57.89L251.28,58.11L251.83,58.46L252.37,58.92L252.88,59.48L253.35,60.13L253.77,60.84L254.13,61.62L254.42,62.43L254.63,63.25L254.76,64.07L254.80,64.86L254.76,65.61L254.63,66.29L254.42,66.90L254.13,67.41L253.85,67.72L253.76,67.82L253.35,68.10"/><path d="M252.44,56.81L252.48,56.79"/><path d="M255.10,57.26L255.63,57.72L256.14,58.28L256.67,59.03L257.04,59.65L257.39,60.42L257.68,61.23L257.89,62.05L258.02,62.87L258.07,63.67L258.02,64.41L258.04,64.33"/><path d="M256.56,58.82L257.07,59.66L257.42,60.42L257.71,61.23L257.90,61.98L258.04,62.86"/></g><g style="stroke:#000000;stroke-width:0.529"><path d="M76.83,129.17L76.59,129.06L75.45,129.48L75.14,129.50L74.82,129.39L74.42,129.10L74.13,128.79L73.89,128.39L73.70,127.95L73.58,127.48L73.54,127.03L73.59,126.52L73.72,126.16L73.92,125.90L74.18,125.75L75.24,125.37L75.34,125.14"/><path d="M258.04,62.86L258.08,63.60L258.04,64.33L257.89,65.10L257.68,65.70L257.39,66.21L257.04,66.62L256.62,66.90L252.88,68.26L252.33,68.28L85.03,129.50"/><path d="M256.56,58.82L256.20,58.32L255.70,57.77L255.10,57.26L254.55,56.92L254.00,56.69L253.46,56.60L252.95,56.63L252.48,56.79L249.21,57.98L248.79,58.27L248.71,58.36L84.63,118.40"/></g></g><g id="Actor_6.0"><g style="stroke:#000000;stroke-width:0.176"><path d="M74.24,128.90L74.28,129.02L74.48,129.34L74.72,129.58L74.98,129.71L75.22,129.72L75.42,129.61L75.51,129.46"/><path d="M74.79,124.33L74.54,124.12L74.33,123.81L74.17,123.45L74.09,123.07L74.09,122.71L74.17,122.42L74.33,122.22L74.54,122.13L74.79,122.17L75.04,122.33L75.17,122.48L75.17,122.67L75.26,123.05L75.41,123.41L75.62,123.71L75.58,124.02L75.46,124.27L75.27,124.41L75.04,124.43L74.79,124.33"/><path d="M75.38,101.63L76.81,101.11L76.84,101.21L76.99,101.46L77.09,101.74L77.12,102.03L77.08,102.28L76.98,102.46L76.84,102.56L76.24,102.73L76.04,102.73L75.85,102.63L75.67,102.45L75.52,102.20L75.42,101.92L75.38,101.63L74.85,100.08"/><path d="M75.22,125.37L75.26,125.24L75.44,124.89L75.70,124.64L76.02,124.51L76.37,124.51L76.74,124.65L77.12,124.90L77.15,124.93L77.00,124.83"/><path d="M75.98,124.64L76.13,124.58L76.18,124.58"/><path d="M75.62,123.71L75.62,123.69L75.58,123.31L75.46,122.94L75.27,122.60L75.17,122.48"/><path d="M78.29,128.32L78.30,128.28L78.29,128.36L78.15,128.77L77.92,129.08L77.63,129.27L77.30,129.33L76.93,129.26L76.74,129.18L76.57,129.07"/><path d="M77.15,124.93L77.17,124.95"/><path d="M76.85,123.79L76.73,123.75"/><path d="M76.60,123.65L76.72,123.75"/><path d="M76.87,123.79L76.88,123.80L76.97,123.78"/><path d="M76.99,123.77L77.00,123.77L77.10,123.67L77.15,123.53L77.16,123.34L77.13,123.13L77.05,122.93L76.94,122.75L76.81,122.62L76.67,122.55L76.54,122.54L76.53,122.55"/><path d="M76.88,124.75L76.83,124.71L76.65,124.65"/><path d="M76.30,124.59L76.47,124.59L76.52,124.61"/><path d="M76.51,122.56L76.43,122.61L76.42,122.62"/><path d="M76.41,122.64L76.36,122.73L76.35,122.75"/><path d="M76.35,122.77L76.32,122.92"/><path d="M76.34,123.11L76.32,122.93"/><path d="M76.34,123.12L76.39,123.31L76.48,123.50L76.60,123.64"/><path d="M76.81,101.11L76.32,99.65L76.74,99.82L77.17,100.09L77.58,100.46L77.97,100.91L78.32,101.44L78.62,102.02L79.35,103.67L80.00,105.36L80.59,107.08L81.11,108.81L81.56,110.55L81.93,112.28L82.22,114.02L82.43,115.73L82.56,117.42L82.62,119.08L82.59,120.70L82.48,122.27L82.30,123.78L82.03,125.23L81.68,126.62L81.61,127.02L81.62,127.48L81.69,127.95L81.84,128.43L82.05,128.89L82.31,129.29L88.01,136.85L88.35,137.35L88.63,137.92L88.85,138.52L88.99,139.14L89.06,139.74L89.05,140.31L88.96,140.83L88.79,141.27L88.56,141.61L88.26,141.86L87.91,141.99"/><path d="M76.32,99.65L76.90,99.44"/><path d="M77.91,130.54L78.02,130.89L78.21,131.23L78.44,131.49L78.70,131.65L78.95,131.69L79.16,131.61L79.32,131.41L79.40,131.11L79.40,130.94L79.30,130.83L79.11,130.49L78.99,130.11L78.95,129.74L78.95,129.71L78.70,129.49L78.44,129.39L78.21,129.41L78.02,129.56L77.90,129.81L77.86,130.14L77.90,130.51L77.91,130.54"/><path d="M77.64,129.14L77.68,129.13L77.82,129.04"/><path d="M78.14,128.70L78.17,128.66L78.24,128.46"/><path d="M77.92,128.97L77.95,128.95L78.06,128.80"/><path d="M78.30,128.28L78.33,128.13"/><path d="M78.96,124.43L78.76,124.24L78.51,124.11L78.27,124.10L78.06,124.21L77.93,124.44L77.86,124.75L77.88,125.12L77.99,125.50L78.16,125.85L78.38,126.14L78.63,126.33L78.89,126.40L79.11,126.34L79.28,126.17L79.39,125.90L79.40,125.65L79.25,125.45L79.07,125.10L78.97,124.72L78.96,124.43L79.00,124.48L79.20,124.80L79.34,125.18L79.41,125.55L79.40,125.65"/><path d="M78.95,129.71L79.16,130.01L79.32,130.37L79.40,130.76L79.40,130.94"/><path d="M89.92,141.25L89.91,141.25"/></g><g style="stroke:#000000;stroke-width:0.529"><path d="M86.93,141.79L87.12,141.89L87.53,142.00L87.91,141.99L90.27,141.12L90.57,140.88L90.80,140.53L90.97,140.09L91.06,139.57L91.07,139.00L91.00,138.40L90.86,137.79L90.64,137.18L90.36,136.62L90.02,136.11L84.32,128.56L84.06,128.15L83.85,127.70L83.71,127.22L83.69,127.14L83.63,126.74L83.62,126.29L83.69,125.88L84.04,124.50L84.31,123.05L84.49,121.53L84.60,119.96L84.63,118.35L84.57,116.69L84.44,115.00L84.23,113.28L83.94,111.55L83.57,109.81L83.12,108.07L82.60,106.34L82.01,104.63L81.50,103.30L81.36,102.94L80.63,101.28L80.33,100.70L79.98,100.18L79.59,99.73L79.18,99.36L78.75,99.08L78.33,98.92L76.90,99.44L76.86,99.34L74.85,100.08L74.62,100.42L74.44,100.84L74.33,101.33L74.28,101.87L74.30,102.45L74.39,103.06L74.54,103.66L74.97,105.21L75.32,106.76L75.61,108.31L75.82,109.84L75.95,111.35L76.01,112.84L76.00,114.28L75.90,115.68L75.73,117.03L75.48,118.31L75.16,119.53L74.77,120.67L74.31,121.74L73.78,122.72L73.53,123.24L73.35,123.86L73.24,124.54L73.22,125.28L73.29,126.06L73.43,126.86L73.56,127.36"/><path d="M82.44,137.59L75.66,131.04L75.17,130.50L74.71,129.88L74.29,129.18L74.01,128.59"/><path d="M77.17,124.95L77.47,125.26L77.78,125.71L78.04,126.23L78.23,126.78L78.34,127.34L78.36,127.88L78.33,128.13"/></g></g><g id="Actor_4.0"><g style="stroke:#000000;stroke-width:0.176"><path d="M37.55,140.75L37.49,140.74L37.34,140.64L37.21,140.48L37.10,140.27L37.03,140.05L37.01,139.83L37.04,139.64L37.12,139.50L37.23,139.42L37.37,139.41L37.52,139.48L37.67,139.62L37.79,139.80L37.88,140.02L37.92,140.24L37.92,140.28L37.92,140.45L37.87,140.62L37.77,140.73L37.64,140.77L37.55,140.75"/><path d="M38.62,140.20L38.79,140.78L39.03,141.35L39.34,141.86L39.69,142.29L40.07,142.63L40.47,142.85L40.86,142.96L41.23,142.93L41.55,142.78L41.82,142.51L42.02,142.14L42.14,141.67L42.17,141.14L42.12,140.56L41.99,139.97L41.78,139.39L41.50,138.86L41.17,138.38L40.80,137.99L40.73,137.94L40.41,137.71L40.02,137.54L39.64,137.50L39.29,137.59L38.99,137.80L38.76,138.13L38.60,138.55L38.55,138.79L38.52,139.05L38.53,139.61L38.62,140.20"/><path d="M42.14,141.63L42.04,142.03L41.84,142.39L41.59,142.65L41.28,142.80L41.23,142.80L40.92,142.82L40.55,142.72L40.17,142.50L39.80,142.18L39.46,141.76L39.17,141.27L38.93,140.73L38.77,140.17L38.68,139.60L38.67,139.07L38.70,138.82L38.75,138.58L38.90,138.18L39.13,137.86L39.41,137.66L39.75,137.58L40.11,137.62L40.49,137.78L40.83,138.02"/><path d="M38.09,134.66L38.58,134.50L39.11,134.46L39.67,134.55L40.25,134.77L40.83,135.11L41.40,135.56L41.94,136.12L42.45,136.77L42.91,137.50L43.31,138.29L43.65,139.12L43.91,139.98L44.10,140.85L44.20,141.69L44.21,142.51L44.14,143.28L43.98,143.97L43.74,144.59L43.43,145.11L43.04,145.51L42.60,145.80"/><path d="M40.51,136.35L40.57,136.58L40.68,136.78L40.82,136.94L40.97,137.04L41.11,137.08L41.24,137.03L41.34,136.92L41.39,136.75L41.40,136.55L41.36,136.32L41.27,136.10L41.14,135.92L41.00,135.79L40.85,135.72L40.82,135.72L40.71,135.72L40.59,135.80L40.52,135.94L40.49,136.13L40.51,136.35"/><path d="M42.78,144.90L42.63,144.86L42.48,144.76L42.35,144.60L42.24,144.40L42.17,144.17L42.15,143.95L42.18,143.76L42.26,143.62L42.37,143.54L42.51,143.54L42.66,143.60L42.81,143.74L42.93,143.92L43.02,144.14L43.06,144.36L43.06,144.57L43.00,144.74L42.91,144.85L42.78,144.90"/><path d="M45.19,142.42L45.22,142.14L45.20,141.33L45.10,140.48L44.92,139.61L44.65,138.76L44.32,137.92L43.91,137.13L43.45,136.41L42.94,135.76L42.63,135.44"/><path d="M47.80,140.24L47.85,139.64L47.81,138.98L47.68,138.30L47.48,137.63L47.20,136.98L46.86,136.38L46.47,135.86L46.04,135.42"/></g><g style="stroke:#000000;stroke-width:0.529"><path d="M42.63,135.44L42.40,135.20L41.83,134.74L41.26,134.40L40.68,134.18L40.12,134.09L39.58,134.13L39.09,134.29L38.09,134.66L37.64,134.95L37.26,135.36L36.94,135.88L36.70,136.49L36.55,137.19L36.47,137.95L36.49,138.77L36.59,139.62L36.77,140.48L37.03,141.34L37.37,142.17L37.78,142.96L38.24,143.69L38.60,144.16L38.74,144.34L39.29,144.90L39.86,145.36L40.43,145.70L41.01,145.91L41.57,146.01L42.10,145.97L42.60,145.80L43.60,145.44L44.05,145.15L44.43,144.74L44.75,144.22L44.98,143.61L45.14,142.91L45.19,142.42"/><path d="M45.19,142.42L46.82,141.82L47.17,141.59L47.45,141.24L47.66,140.79L47.80,140.24L47.81,140.16L47.86,139.57L47.82,138.93L47.70,138.28L47.50,137.62L47.23,136.99L46.90,136.41L46.52,135.90L46.11,135.48L46.04,135.42L45.59,135.09L45.13,134.88L44.69,134.79L44.28,134.84L42.63,135.44"/></g></g><g id="Actor_4.1"><g style="stroke:#000000;stroke-width:0.176"><path d="M261.97,63.08L262.50,62.89L262.88,62.72L263.20,62.43L263.45,62.02L263.62,61.52L263.71,60.95L263.71,60.31L263.63,59.64L263.47,58.96L263.23,58.30L262.92,57.67L262.55,57.11L262.33,56.85"/><path d="M262.49,54.80L262.93,55.25L263.43,55.90L263.90,56.63L264.30,57.42L264.64,58.25L264.90,59.11L265.08,59.97L265.18,60.82L265.20,61.64L265.14,62.26L265.12,62.41L264.97,63.10L264.73,63.72L264.41,64.23L264.03,64.64L263.59,64.93"/><path d="M263.28,63.63L263.40,63.82L263.54,63.95L263.69,64.02L263.83,64.01L263.95,63.93L264.02,63.79L264.05,63.60L264.03,63.38L263.97,63.16L263.86,62.96L263.72,62.79L263.58,62.69L263.43,62.66L263.30,62.70L263.20,62.81L263.15,62.98L263.14,63.19L263.19,63.41L263.28,63.63"/></g><g style="stroke:#000000;stroke-width:0.529"><path d="M263.37,65.00L263.59,64.93L264.59,64.57L265.03,64.28L265.42,63.87L265.73,63.35L265.97,62.74L266.13,62.04L266.20,61.27L266.19,60.46L266.09,59.61L265.90,58.74L265.64,57.89L265.30,57.05L264.90,56.26L264.44,55.54L263.93,54.88L263.39,54.32L262.82,53.87L262.51,53.68"/></g></g><g id="Actor_8.0"><g style="stroke:#000000;stroke-width:0.176"><path d="M55.76,136.21L55.63,136.13L55.32,135.82L55.05,135.41L54.83,134.95L54.69,134.46L54.63,133.97L54.66,133.52L54.77,133.14L54.96,132.86L55.21,132.69L55.51,132.65L55.84,132.74L56.17,132.94L56.48,133.26L56.75,133.67L56.96,134.13L57.11,134.62L57.17,135.11L57.14,135.56L57.03,135.93L56.84,136.22L56.59,136.39L56.29,136.43L55.96,136.34L55.76,136.21"/><path d="M55.12,131.93L55.49,131.93L55.88,132.07L56.27,132.32L56.65,132.69L56.98,133.16L57.26,133.69L57.48,134.26L57.61,134.85L57.66,135.42L57.62,135.95L57.49,136.41L57.29,136.77L57.01,137.02L56.68,137.15"/><path d="M58.06,130.85L59.31,130.40L59.68,130.40L60.07,130.53L60.46,130.79L60.83,131.16L61.17,131.62L61.45,132.16L61.66,132.73L61.80,133.32L61.85,133.89L61.81,134.42L61.68,134.88L61.48,135.24L61.20,135.49L60.87,135.62L59.93,135.96"/><path d="M61.27,136.19L61.60,135.99L61.88,135.67L62.09,135.26L62.22,134.76L62.27,134.19L62.23,133.57L62.12,132.94L61.92,132.30L61.66,131.70L61.33,131.14L60.96,130.66L60.55,130.26L60.12,129.97L59.70,129.80L59.29,129.75L58.90,129.83"/></g><g style="stroke:#000000;stroke-width:0.529"><path d="M58.06,130.85L58.08,130.75L58.29,130.34L58.57,130.03L58.90,129.83L59.24,129.70L59.62,129.63L60.03,129.68L60.46,129.85L60.88,130.14L61.29,130.53L61.67,131.02L61.99,131.57L62.26,132.18L62.45,132.81L62.57,133.45L62.60,134.07L62.56,134.63L62.42,135.14L62.22,135.55L61.94,135.87L61.60,136.06L61.27,136.19L60.89,136.26L60.48,136.21L60.05,136.04L59.93,135.96L56.68,137.15L56.31,137.15L55.92,137.01L55.53,136.75L55.15,136.38L54.82,135.92L54.53,135.39L54.32,134.82L54.19,134.23L54.14,133.65L54.18,133.13L54.30,132.67L54.51,132.31L54.79,132.05L55.12,131.93L58.06,130.85"/></g></g><g id="Actor_2.0"><g style="stroke:#000000;stroke-width:0.176"><path d="M25.29,144.18L25.27,144.15L25.13,144.02L24.98,143.95L24.84,143.96L24.72,144.03L24.65,144.18L24.62,144.37L24.64,144.59L24.70,144.81L24.81,145.01L24.95,145.18L25.10,145.28L25.24,145.31L25.37,145.27L25.47,145.16L25.52,144.99L25.53,144.82"/><path d="M30.20,150.34L30.65,150.05L31.03,149.64L31.34,149.13L31.58,148.51L31.74,147.81L31.81,147.05L31.80,146.23L31.70,145.38L31.52,144.52L31.25,143.66L30.92,142.83L30.51,142.04L30.05,141.31L29.54,140.66L29.00,140.10L28.45,139.66L28.43,139.65L27.85,139.30L27.28,139.09L26.72,138.99L26.18,139.03L25.69,139.20"/><path d="M29.00,141.13L29.00,141.29L28.94,141.46L28.85,141.57L28.72,141.61L28.57,141.58L28.42,141.48L28.29,141.32L28.18,141.11L28.11,140.89L28.09,140.67L28.12,140.48L28.20,140.34L28.31,140.26L28.45,140.25L28.60,140.32L28.75,140.46L28.77,140.48"/><path d="M30.67,148.95L30.66,149.11L30.61,149.28L30.51,149.39L30.38,149.43L30.24,149.40L30.09,149.30L29.95,149.14L29.84,148.93L29.78,148.71L29.76,148.49L29.79,148.30L29.86,148.16L29.98,148.08L30.12,148.07L30.27,148.14L30.41,148.28L30.43,148.30"/></g><g style="stroke:#000000;stroke-width:0.529"><path d="M24.98,146.71L24.64,145.88L24.37,145.02L24.19,144.16L24.09,143.31L24.08,142.49L24.15,141.72L24.31,141.03L24.55,140.41L24.86,139.90L25.24,139.49L25.69,139.20L26.36,138.95L26.85,138.79L27.39,138.75L27.95,138.84L28.52,139.06L29.10,139.40L29.38,139.62L29.67,139.85L30.21,140.41L30.72,141.07L31.18,141.79L31.59,142.58L31.92,143.42L32.19,144.27L32.37,145.14L32.47,145.99L32.48,146.80L32.41,147.57L32.25,148.27L32.01,148.88L31.70,149.40L31.32,149.81L30.87,150.10L30.20,150.34L29.71,150.51L29.17,150.54L28.61,150.45L28.04,150.23L27.46,149.89L26.89,149.44L26.35,148.88L25.84,148.23L25.38,147.50L24.98,146.71"/><path d="M25.48,144.77L25.37,144.56L25.31,144.34L25.29,144.18L25.40,144.34L25.48,144.55L25.53,144.78L25.53,144.82L25.48,144.77"/><path d="M28.96,140.86L28.87,140.64L28.77,140.48L28.78,140.64L28.85,140.87L28.96,141.07L29.00,141.13L29.00,141.08L28.96,140.86"/><path d="M30.52,148.70L30.62,148.89L30.67,148.95L30.67,148.90L30.62,148.68L30.54,148.46L30.43,148.30L30.45,148.46L30.51,148.69L30.52,148.70"/></g></g><g id="Actor_2.1"><g style="stroke:#000000;stroke-width:0.176"><path d="M264.59,64.56L265.03,64.28L265.42,63.87L265.73,63.35L265.97,62.74L266.13,62.04L266.20,61.27L266.19,60.46L266.09,59.61L265.90,58.74L265.64,57.89L265.30,57.05L264.90,56.26L264.44,55.54L263.93,54.88L263.39,54.33L262.82,53.87L262.51,53.68"/></g><g style="stroke:#000000;stroke-width:0.529"><path d="M262.51,53.13L262.91,53.28L263.49,53.62L264.06,54.08L264.60,54.64L265.11,55.29L265.57,56.02L265.97,56.81L266.31,57.64L266.57,58.50L266.76,59.36L266.86,60.21L266.87,61.03L266.80,61.79L266.64,62.49L266.40,63.11L266.09,63.62L265.70,64.03L265.26,64.32L264.59,64.56"/></g></g><g id="Actor_1.0"><g style="stroke:#000000;stroke-width:0.176"><path d="M76.98,123.78L77.07,123.70L77.11,123.63"/><path d="M76.79,123.77L76.79,123.77"/><path d="M77.16,123.47L77.14,123.58L77.11,123.63"/><path d="M77.16,123.37L77.16,123.41L77.16,123.47"/><path d="M77.15,123.28L77.16,123.37"/><path d="M77.14,123.17L77.15,123.22L77.15,123.28"/><path d="M77.11,123.08L77.14,123.17"/><path d="M77.07,122.97L77.09,123.02L77.11,123.08"/><path d="M77.07,122.97L77.03,122.89"/><path d="M77.03,122.89L77.00,122.84L76.97,122.79"/><path d="M76.92,122.72L76.97,122.79"/><path d="M76.92,122.72L76.89,122.69L76.85,122.66"/><path d="M76.51,122.56L76.63,122.54L76.76,122.59L76.85,122.66"/><path d="M76.38,122.69L76.38,122.69"/><path d="M76.65,123.69L76.65,123.69"/><path d="M76.33,122.84L76.33,122.84"/><path d="M76.33,123.03L76.33,123.03"/><path d="M76.48,123.50L76.48,123.50"/><path d="M76.39,123.31L76.39,123.31"/><path d="M76.37,123.25L76.37,123.24"/><path d="M76.34,123.11L76.34,123.11"/></g><g style="stroke:#000000;stroke-width:0.529"><path d="M76.79,123.77L76.73,123.75L76.65,123.69"/><path d="M76.98,123.78L76.86,123.80L76.79,123.77"/><path d="M76.48,123.50L76.60,123.65L76.65,123.69"/><path d="M76.48,123.50L76.48,123.50L76.39,123.32L76.39,123.31"/><path d="M76.39,123.31L76.37,123.25"/><path d="M76.34,123.11L76.34,123.12L76.37,123.24"/><path d="M76.33,122.84L76.32,122.93L76.33,123.03"/><path d="M76.38,122.69L76.35,122.76L76.33,122.84"/><path d="M76.33,123.03L76.34,123.11"/><path d="M76.51,122.56L76.41,122.63L76.38,122.69"/></g></g><g id="Actor_3.0"><g style="stroke:#000000;stroke-width:0.176"><path d="M78.91,139.92L78.58,139.88L78.26,139.83L77.93,139.76L77.63,139.74L77.34,139.82L77.10,139.99L76.90,140.26L76.77,140.60L76.70,141.00L76.70,141.46L76.77,141.94L76.90,142.43L77.09,142.89L77.32,143.31L77.60,143.69L77.91,143.99L78.24,144.21L78.56,144.33L78.86,144.35L79.15,144.28L79.39,144.10L79.58,143.83L79.71,143.49L79.82,143.15L79.94,142.79L80.10,142.41L79.85,142.03L79.63,141.65L79.43,141.27L79.40,141.20L79.22,140.80L79.20,140.76L79.06,140.38L78.91,139.92L87.41,136.81"/><path d="M79.54,144.49L79.56,144.25L79.61,143.94L79.68,143.62L79.71,143.49L79.78,143.09L79.79,142.63L79.72,142.15L79.59,141.66L79.40,141.20L79.17,140.78L78.88,140.40L78.57,140.10L78.25,139.88L77.93,139.76L77.66,139.69L77.63,139.68L77.40,139.61L77.16,139.52"/><path d="M78.35,142.92L78.15,142.83L77.96,142.64L77.81,142.39L77.70,142.11L77.65,141.82L77.66,141.55L77.74,141.33L77.87,141.20L78.04,141.15L78.24,141.21L78.43,141.35L78.61,141.57L78.71,141.78L78.74,141.84L78.82,142.13L78.84,142.42L78.79,142.66L78.72,142.78L78.69,142.84L78.53,142.93L78.35,142.92"/><path d="M80.10,142.41L88.60,139.30"/></g><g style="stroke:#000000;stroke-width:0.529"><path d="M77.29,143.28L77.09,142.89L77.05,142.82L76.88,142.43L76.73,142.03L76.60,141.61L76.62,141.37L76.64,141.26L76.70,140.93L76.77,140.60L76.88,140.25L77.00,139.91L77.16,139.52L85.66,136.41L86.00,136.46L86.31,136.51L86.64,136.57L86.91,136.64L86.94,136.65L87.17,136.72L87.41,136.81L87.66,137.19L87.88,137.57L88.08,137.95L88.11,138.02L88.29,138.42L88.45,138.85L88.60,139.30L88.56,139.64L88.51,139.96L88.42,140.30L88.32,140.63L88.20,140.99L88.15,141.11L88.04,141.38L79.54,144.49L79.18,144.44L78.85,144.39L78.56,144.33L78.25,144.25L78.01,144.18L77.78,144.09L77.52,143.68L77.29,143.28"/></g></g><g id="Actor_3.1"><g style="stroke:#000000;stroke-width:0.176"><path d="M267.52,70.50L275.69,67.51"/><path d="M268.77,72.82L277.11,69.77"/></g><g style="stroke:#000000;stroke-width:0.529"><path d="M267.23,70.11L274.04,67.62L274.38,67.58L274.68,67.55L274.97,67.53L275.22,67.52L275.45,67.51L275.69,67.51L275.97,67.86L276.23,68.20L276.46,68.54L276.50,68.61L276.72,68.97L276.74,69.02L276.92,69.36L277.11,69.77L277.13,70.13L277.12,70.49L277.10,70.85L277.10,70.91L277.05,71.30L276.97,71.70L276.88,72.13L268.82,75.08"/></g></g><g/><g id="paperID" visibility="hidden" opacity="0.00" transform="scale(0.000100)"><path style="stroke:#000000;stroke-width:0.500;fill:#e6e6e6;fill-rule:evenodd" d="M-2000.00,-2000.00L2297.00,-2000.00L2297.00,2210.00L-2000.00,2210.00zM0.00,0.00L297.00,0.00L297.00,210.00L0.00,210.00z"/><path style="fill:#000000;fill-opacity:0.118" d="M3.00,210.00L297.00,210.00L297.00,3.00L300.00,3.00L300.00,213.00L3.00,213.00z"/></g><g><g><path style="stroke:#000000;stroke-width:0.353;fill:#f0f0ff" d="M102.86,169.62L286.39,169.62L286.39,173.29L102.86,173.29z"/><text xml:space="preserve" fill="#000000" stroke-width="0" x="104.27" y="172.44" font-size="2.64" opacity="1.00" font-family="MS Shell Dlg" font-weight="bold">ID BOM</text><text xml:space="preserve" fill="#000000" stroke-width="0" x="116.67" y="172.44" font-size="2.62" opacity="1.00" font-family="MS Shell Dlg" font-weight="bold">Qtà</text><text xml:space="preserve" fill="#000000" stroke-width="0" x="123.83" y="172.44" font-size="2.66" opacity="1.00" font-family="MS Shell Dlg" font-weight="bold">Codice (config)</text><text xml:space="preserve" fill="#000000" stroke-width="0" x="145.17" y="172.44" font-size="2.65" opacity="1.00" font-family="MS Shell Dlg" font-weight="bold">Codice</text><text xml:space="preserve" fill="#000000" stroke-width="0" x="162.35" y="172.44" font-size="2.66" opacity="1.00" font-family="MS Shell Dlg" font-weight="bold">Descrizione1 (config)</text><text xml:space="preserve" fill="#000000" stroke-width="0" x="207.76" y="172.44" font-size="2.65" opacity="1.00" font-family="MS Shell Dlg" font-weight="bold">Descrizione1</text><text xml:space="preserve" fill="#000000" stroke-width="0" x="253.17" y="172.44" font-size="2.67" opacity="1.00" font-family="MS Shell Dlg" font-weight="bold">CodiceGestionale (config)</text><path style="stroke:#000000;stroke-width:0.353" d="M115.26,169.62L115.26,173.29"/><path style="stroke:#000000;stroke-width:0.353" d="M122.42,169.62L122.42,173.29"/><path style="stroke:#000000;stroke-width:0.353" d="M143.76,169.62L143.76,173.29"/><path style="stroke:#000000;stroke-width:0.353" d="M160.94,169.62L160.94,173.29"/><path style="stroke:#000000;stroke-width:0.353" d="M206.35,169.62L206.35,173.29"/><path style="stroke:#000000;stroke-width:0.353" d="M251.76,169.62L251.76,173.29"/></g><g id="Line1"><path style="stroke:#000000;stroke-width:0.353;fill:#ffffff" d="M102.86,173.29L286.39,173.29L286.39,176.95L102.86,176.95z"/><text xml:space="preserve" fill="#000000" stroke-width="0" x="104.27" y="176.11" font-size="2.22" opacity="1.00" font-family="MS Shell Dlg">1</text><text xml:space="preserve" fill="#000000" stroke-width="0" x="116.67" y="176.11" font-size="2.62" opacity="1.00" font-family="MS Shell Dlg">2</text><text xml:space="preserve" fill="#000000" stroke-width="0" x="123.83" y="176.11" font-size="2.75" opacity="1.00" font-family="MS Shell Dlg">6364/A6*24</text><text xml:space="preserve" fill="#000000" stroke-width="0" x="145.17" y="176.11" font-size="2.75" opacity="1.00" font-family="MS Shell Dlg">6364/A6*20</text><text xml:space="preserve" fill="#000000" stroke-width="0" x="162.35" y="176.11" font-size="2.76" opacity="1.00" font-family="MS Shell Dlg">SPINA CILINDRICA TEMP./RETT.</text><text xml:space="preserve" fill="#000000" stroke-width="0" x="207.76" y="176.11" font-size="2.76" opacity="1.00" font-family="MS Shell Dlg">SPINA CILINDRICA TEMP./RETT.</text><text xml:space="preserve" fill="#000000" stroke-width="0" x="253.17" y="176.11" font-size="-1.#J" opacity="1.00" font-family="MS Shell Dlg"></text><path style="stroke:#000000;stroke-width:0.353" d="M115.26,173.29L115.26,176.95"/><path style="stroke:#000000;stroke-width:0.353" d="M122.42,173.29L122.42,176.95"/><path style="stroke:#000000;stroke-width:0.353" d="M143.76,173.29L143.76,176.95"/><path style="stroke:#000000;stroke-width:0.353" d="M160.94,173.29L160.94,176.95"/><path style="stroke:#000000;stroke-width:0.353" d="M206.35,173.29L206.35,176.95"/><path style="stroke:#000000;stroke-width:0.353" d="M251.76,173.29L251.76,176.95"/></g><g id="Line2"><path style="stroke:#000000;stroke-width:0.353;fill:#f0f0ff" d="M102.86,176.95L286.39,176.95L286.39,180.62L102.86,180.62z"/><text xml:space="preserve" fill="#000000" stroke-width="0" x="104.27" y="179.78" font-size="2.62" opacity="1.00" font-family="MS Shell Dlg">2</text><text xml:space="preserve" fill="#000000" stroke-width="0" x="116.67" y="179.78" font-size="2.62" opacity="1.00" font-family="MS Shell Dlg">2</text><text xml:space="preserve" fill="#000000" stroke-width="0" x="123.83" y="179.78" font-size="2.76" opacity="1.00" font-family="MS Shell Dlg">TP04920D</text><text xml:space="preserve" fill="#000000" stroke-width="0" x="145.17" y="179.78" font-size="2.76" opacity="1.00" font-family="MS Shell Dlg">TP04920D</text><text xml:space="preserve" fill="#000000" stroke-width="0" x="162.35" y="179.78" font-size="2.75" opacity="1.00" font-family="MS Shell Dlg">COPERCHIO</text><text xml:space="preserve" fill="#000000" stroke-width="0" x="207.76" y="179.78" font-size="2.75" opacity="1.00" font-family="MS Shell Dlg">COPERCHIO</text><text xml:space="preserve" fill="#000000" stroke-width="0" x="253.17" y="179.78" font-size="-1.#J" opacity="1.00" font-family="MS Shell Dlg"></text><path style="stroke:#000000;stroke-width:0.353" d="M115.26,176.95L115.26,180.62"/><path style="stroke:#000000;stroke-width:0.353" d="M122.42,176.95L122.42,180.62"/><path style="stroke:#000000;stroke-width:0.353" d="M143.76,176.95L143.76,180.62"/><path style="stroke:#000000;stroke-width:0.353" d="M160.94,176.95L160.94,180.62"/><path style="stroke:#000000;stroke-width:0.353" d="M206.35,176.95L206.35,180.62"/><path style="stroke:#000000;stroke-width:0.353" d="M251.76,176.95L251.76,180.62"/></g><g id="Line3"><path style="stroke:#000000;stroke-width:0.353;fill:#ffffff" d="M102.86,180.62L286.39,180.62L286.39,184.29L102.86,184.29z"/><text xml:space="preserve" fill="#000000" stroke-width="0" x="104.27" y="183.44" font-size="2.55" opacity="1.00" font-family="MS Shell Dlg">3</text><text xml:space="preserve" fill="#000000" stroke-width="0" x="116.67" y="183.44" font-size="2.62" opacity="1.00" font-family="MS Shell Dlg">2</text><text xml:space="preserve" fill="#000000" stroke-width="0" x="123.83" y="183.44" font-size="2.76" opacity="1.00" font-family="MS Shell Dlg">TP04930D</text><text xml:space="preserve" fill="#000000" stroke-width="0" x="145.17" y="183.44" font-size="2.76" opacity="1.00" font-family="MS Shell Dlg">TP04930D</text><text xml:space="preserve" fill="#000000" stroke-width="0" x="162.35" y="183.44" font-size="2.75" opacity="1.00" font-family="MS Shell Dlg">COLONNETTA</text><text xml:space="preserve" fill="#000000" stroke-width="0" x="207.76" y="183.44" font-size="2.75" opacity="1.00" font-family="MS Shell Dlg">COLONNETTA</text><text xml:space="preserve" fill="#000000" stroke-width="0" x="253.17" y="183.44" font-size="-1.#J" opacity="1.00" font-family="MS Shell Dlg"></text><path style="stroke:#000000;stroke-width:0.353" d="M115.26,180.62L115.26,184.29"/><path style="stroke:#000000;stroke-width:0.353" d="M122.42,180.62L122.42,184.29"/><path style="stroke:#000000;stroke-width:0.353" d="M143.76,180.62L143.76,184.29"/><path style="stroke:#000000;stroke-width:0.353" d="M160.94,180.62L160.94,184.29"/><path style="stroke:#000000;stroke-width:0.353" d="M206.35,180.62L206.35,184.29"/><path style="stroke:#000000;stroke-width:0.353" d="M251.76,180.62L251.76,184.29"/></g><g id="Line4"><path style="stroke:#000000;stroke-width:0.353;fill:#f0f0ff" d="M102.86,184.29L286.39,184.29L286.39,187.96L102.86,187.96z"/><text xml:space="preserve" fill="#000000" stroke-width="0" x="104.27" y="187.11" font-size="2.70" opacity="1.00" font-family="MS Shell Dlg">4</text><text xml:space="preserve" fill="#000000" stroke-width="0" x="116.67" y="187.11" font-size="2.62" opacity="1.00" font-family="MS Shell Dlg">2</text><text xml:space="preserve" fill="#000000" stroke-width="0" x="123.83" y="187.11" font-size="2.76" opacity="1.00" font-family="MS Shell Dlg">TP04935D</text><text xml:space="preserve" fill="#000000" stroke-width="0" x="145.17" y="187.11" font-size="2.76" opacity="1.00" font-family="MS Shell Dlg">TP04935D</text><text xml:space="preserve" fill="#000000" stroke-width="0" x="162.35" y="187.11" font-size="2.72" opacity="1.00" font-family="MS Shell Dlg">FLANGIA</text><text xml:space="preserve" fill="#000000" stroke-width="0" x="207.76" y="187.11" font-size="2.72" opacity="1.00" font-family="MS Shell Dlg">FLANGIA</text><text xml:space="preserve" fill="#000000" stroke-width="0" x="253.17" y="187.11" font-size="-1.#J" opacity="1.00" font-family="MS Shell Dlg"></text><path style="stroke:#000000;stroke-width:0.353" d="M115.26,184.29L115.26,187.96"/><path style="stroke:#000000;stroke-width:0.353" d="M122.42,184.29L122.42,187.96"/><path style="stroke:#000000;stroke-width:0.353" d="M143.76,184.29L143.76,187.96"/><path style="stroke:#000000;stroke-width:0.353" d="M160.94,184.29L160.94,187.96"/><path style="stroke:#000000;stroke-width:0.353" d="M206.35,184.29L206.35,187.96"/><path style="stroke:#000000;stroke-width:0.353" d="M251.76,184.29L251.76,187.96"/></g><g id="Line5"><path style="stroke:#000000;stroke-width:0.353;fill:#ffffff" d="M102.86,187.96L286.39,187.96L286.39,191.63L102.86,191.63z"/><text xml:space="preserve" fill="#000000" stroke-width="0" x="104.27" y="190.78" font-size="2.56" opacity="1.00" font-family="MS Shell Dlg">5</text><text xml:space="preserve" fill="#000000" stroke-width="0" x="116.67" y="190.78" font-size="2.22" opacity="1.00" font-family="MS Shell Dlg">1</text><text xml:space="preserve" fill="#000000" stroke-width="0" x="123.83" y="190.78" font-size="2.76" opacity="1.00" font-family="MS Shell Dlg">TP04969D</text><text xml:space="preserve" fill="#000000" stroke-width="0" x="145.17" y="190.78" font-size="2.76" opacity="1.00" font-family="MS Shell Dlg">TP04969D</text><text xml:space="preserve" fill="#000000" stroke-width="0" x="162.35" y="190.78" font-size="2.77" opacity="1.00" font-family="MS Shell Dlg">ALBERO DI COLLEGAMENTO</text><text xml:space="preserve" fill="#000000" stroke-width="0" x="207.76" y="190.78" font-size="2.77" opacity="1.00" font-family="MS Shell Dlg">ALBERO DI COLLEGAMENTO</text><text xml:space="preserve" fill="#000000" stroke-width="0" x="253.17" y="190.78" font-size="-1.#J" opacity="1.00" font-family="MS Shell Dlg"></text><path style="stroke:#000000;stroke-width:0.353" d="M115.26,187.96L115.26,191.63"/><path style="stroke:#000000;stroke-width:0.353" d="M122.42,187.96L122.42,191.63"/><path style="stroke:#000000;stroke-width:0.353" d="M143.76,187.96L143.76,191.63"/><path style="stroke:#000000;stroke-width:0.353" d="M160.94,187.96L160.94,191.63"/><path style="stroke:#000000;stroke-width:0.353" d="M206.35,187.96L206.35,191.63"/><path style="stroke:#000000;stroke-width:0.353" d="M251.76,187.96L251.76,191.63"/></g><g id="Line6"><path style="stroke:#000000;stroke-width:0.353;fill:#f0f0ff" d="M102.86,191.63L286.39,191.63L286.39,195.29L102.86,195.29z"/><text xml:space="preserve" fill="#000000" stroke-width="0" x="104.27" y="194.45" font-size="2.55" opacity="1.00" font-family="MS Shell Dlg">6</text><text xml:space="preserve" fill="#000000" stroke-width="0" x="116.67" y="194.45" font-size="2.22" opacity="1.00" font-family="MS Shell Dlg">1</text><text xml:space="preserve" fill="#000000" stroke-width="0" x="123.83" y="194.45" font-size="2.76" opacity="1.00" font-family="MS Shell Dlg">TP04995D</text><text xml:space="preserve" fill="#000000" stroke-width="0" x="145.17" y="194.45" font-size="2.76" opacity="1.00" font-family="MS Shell Dlg">TP04995D</text><text xml:space="preserve" fill="#000000" stroke-width="0" x="162.35" y="194.45" font-size="2.69" opacity="1.00" font-family="MS Shell Dlg">LEVA</text><text xml:space="preserve" fill="#000000" stroke-width="0" x="207.76" y="194.45" font-size="2.69" opacity="1.00" font-family="MS Shell Dlg">LEVA</text><text xml:space="preserve" fill="#000000" stroke-width="0" x="253.17" y="194.45" font-size="-1.#J" opacity="1.00" font-family="MS Shell Dlg"></text><path style="stroke:#000000;stroke-width:0.353" d="M115.26,191.63L115.26,195.29"/><path style="stroke:#000000;stroke-width:0.353" d="M122.42,191.63L122.42,195.29"/><path style="stroke:#000000;stroke-width:0.353" d="M143.76,191.63L143.76,195.29"/><path style="stroke:#000000;stroke-width:0.353" d="M160.94,191.63L160.94,195.29"/><path style="stroke:#000000;stroke-width:0.353" d="M206.35,191.63L206.35,195.29"/><path style="stroke:#000000;stroke-width:0.353" d="M251.76,191.63L251.76,195.29"/></g><g id="Line7"><path style="stroke:#000000;stroke-width:0.353;fill:#ffffff" d="M102.86,195.29L286.39,195.29L286.39,198.96L102.86,198.96z"/><text xml:space="preserve" fill="#000000" stroke-width="0" x="104.27" y="198.12" font-size="2.53" opacity="1.00" font-family="MS Shell Dlg">7</text><text xml:space="preserve" fill="#000000" stroke-width="0" x="116.67" y="198.12" font-size="2.22" opacity="1.00" font-family="MS Shell Dlg">1</text><text xml:space="preserve" fill="#000000" stroke-width="0" x="123.83" y="198.12" font-size="2.76" opacity="1.00" font-family="MS Shell Dlg">TP04995S</text><text xml:space="preserve" fill="#000000" stroke-width="0" x="145.17" y="198.12" font-size="2.76" opacity="1.00" font-family="MS Shell Dlg">TP04995S</text><text xml:space="preserve" fill="#000000" stroke-width="0" x="162.35" y="198.12" font-size="2.69" opacity="1.00" font-family="MS Shell Dlg">LEVA</text><text xml:space="preserve" fill="#000000" stroke-width="0" x="207.76" y="198.12" font-size="2.69" opacity="1.00" font-family="MS Shell Dlg">LEVA</text><text xml:space="preserve" fill="#000000" stroke-width="0" x="253.17" y="198.12" font-size="-1.#J" opacity="1.00" font-family="MS Shell Dlg"></text><path style="stroke:#000000;stroke-width:0.353" d="M115.26,195.29L115.26,198.96"/><path style="stroke:#000000;stroke-width:0.353" d="M122.42,195.29L122.42,198.96"/><path style="stroke:#000000;stroke-width:0.353" d="M143.76,195.29L143.76,198.96"/><path style="stroke:#000000;stroke-width:0.353" d="M160.94,195.29L160.94,198.96"/><path style="stroke:#000000;stroke-width:0.353" d="M206.35,195.29L206.35,198.96"/><path style="stroke:#000000;stroke-width:0.353" d="M251.76,195.29L251.76,198.96"/></g><g id="Line8"><path style="stroke:#000000;stroke-width:0.353;fill:#f0f0ff" d="M102.86,198.96L286.39,198.96L286.39,202.63L102.86,202.63z"/><text xml:space="preserve" fill="#000000" stroke-width="0" x="104.27" y="201.78" font-size="2.56" opacity="1.00" font-family="MS Shell Dlg">8</text><text xml:space="preserve" fill="#000000" stroke-width="0" x="116.67" y="201.78" font-size="2.62" opacity="1.00" font-family="MS Shell Dlg">2</text><text xml:space="preserve" fill="#000000" stroke-width="0" x="123.83" y="201.78" font-size="2.76" opacity="1.00" font-family="MS Shell Dlg">TP05146D</text><text xml:space="preserve" fill="#000000" stroke-width="0" x="145.17" y="201.78" font-size="2.76" opacity="1.00" font-family="MS Shell Dlg">TP05146D</text><text xml:space="preserve" fill="#000000" stroke-width="0" x="162.35" y="201.78" font-size="2.74" opacity="1.00" font-family="MS Shell Dlg">BOCCOLA FIPS</text><text xml:space="preserve" fill="#000000" stroke-width="0" x="207.76" y="201.78" font-size="2.74" opacity="1.00" font-family="MS Shell Dlg">BOCCOLA FIPS</text><text xml:space="preserve" fill="#000000" stroke-width="0" x="253.17" y="201.78" font-size="-1.#J" opacity="1.00" font-family="MS Shell Dlg"></text><path style="stroke:#000000;stroke-width:0.353" d="M115.26,198.96L115.26,202.63"/><path style="stroke:#000000;stroke-width:0.353" d="M122.42,198.96L122.42,202.63"/><path style="stroke:#000000;stroke-width:0.353" d="M143.76,198.96L143.76,202.63"/><path style="stroke:#000000;stroke-width:0.353" d="M160.94,198.96L160.94,202.63"/><path style="stroke:#000000;stroke-width:0.353" d="M206.35,198.96L206.35,202.63"/><path style="stroke:#000000;stroke-width:0.353" d="M251.76,198.96L251.76,202.63"/></g></g><g id="hotspot.0" onmouseover="ShowHotSpot(evt,'0')" onmouseout="HideHotSpot(evt,'0')" onmousemove="ShowToolTip(evt,'0',&quot;OPM00028551&quot;)" opacity="0"><a xlink:href=""><path style="fill:#00ff00;fill-rule:evenodd" d="M102.86,173.29L102.86,176.95L286.39,176.95L286.39,173.29zM77.09,122.91L77.06,123.75L76.59,123.69L76.51,122.68L76.82,122.64z"/></a></g><g id="hotspot.1" onmouseover="ShowHotSpot(evt,'1')" onmouseout="HideHotSpot(evt,'1')" onmousemove="ShowToolTip(evt,'1',&quot;SAM000055358&quot;)" opacity="0"><a xlink:href=""><path style="fill:#00ff00;fill-rule:evenodd" d="M102.86,176.95L102.86,180.62L286.39,180.62L286.39,176.95zM263.96,53.89L265.18,55.29L265.87,56.51L266.82,59.13L266.83,62.07L266.01,63.90L265.55,63.90L266.11,62.54L266.11,59.37L265.19,56.72L263.75,54.58L262.77,53.88L262.78,53.16zM29.47,139.57L31.11,141.51L32.31,144.36L32.54,147.30L32.06,148.97L31.26,149.83L30.33,150.33L28.23,150.34L26.60,149.11L25.15,147.00L24.44,144.85L24.12,142.47L24.43,140.86L25.41,139.46L26.50,138.88L28.27,138.88z"/></a></g><g id="hotspot.2" onmouseover="ShowHotSpot(evt,'2')" onmouseout="HideHotSpot(evt,'2')" onmousemove="ShowToolTip(evt,'2',&quot;SAM000055368&quot;)" opacity="0"><a xlink:href=""><path style="fill:#00ff00;fill-rule:evenodd" d="M102.86,180.62L102.86,184.29L286.39,184.29L286.39,180.62zM276.15,67.89L277.07,69.59L277.08,71.84L276.87,72.11L269.92,74.67L269.13,74.94L268.97,73.17L267.80,70.77L267.52,70.53L267.44,70.10L273.88,67.69L275.89,67.68zM87.58,136.94L88.50,138.64L88.49,140.40L88.17,141.26L79.85,144.39L78.97,144.38L78.02,144.12L77.06,142.70L76.81,142.00L76.82,140.87L77.24,139.62L82.23,137.71L85.55,136.50L86.59,136.50z"/></a></g><g id="hotspot.3" onmouseover="ShowHotSpot(evt,'3')" onmouseout="HideHotSpot(evt,'3')" onmousemove="ShowToolTip(evt,'3',&quot;SAM000054685&quot;)" opacity="0"><a xlink:href=""><path style="fill:#00ff00;fill-rule:evenodd" d="M102.86,184.29L102.86,187.96L286.39,187.96L286.39,184.29zM263.75,54.58L265.19,56.72L266.11,59.37L266.05,62.71L265.31,64.12L263.89,64.87L263.27,64.85L261.81,62.72L261.82,60.15L262.78,53.87zM41.34,134.37L42.55,135.32L43.48,135.15L44.37,134.83L45.16,134.82L45.64,135.08L46.85,136.24L47.78,138.17L47.79,140.65L47.29,141.57L45.33,142.47L44.92,143.97L44.00,145.19L42.71,145.81L40.86,145.81L39.46,145.06L38.28,143.62L37.53,142.47L36.82,140.33L36.58,137.79L36.81,136.34L37.79,134.94L38.72,134.44L39.60,134.12L40.64,134.12z"/></a></g><g id="hotspot.4" onmouseover="ShowHotSpot(evt,'4')" onmouseout="HideHotSpot(evt,'4')" onmousemove="ShowToolTip(evt,'4',&quot;SAM000056326&quot;)" opacity="0"><a xlink:href=""><path style="fill:#00ff00;fill-rule:evenodd" d="M102.86,187.96L102.86,191.63L286.39,191.63L286.39,187.96zM255.43,57.43L256.82,59.13L258.02,61.98L258.02,64.92L257.78,65.63L256.97,66.73L253.89,67.94L251.98,68.41L85.55,129.39L84.94,129.38L83.96,127.71L83.96,125.15L84.44,122.78L84.84,118.41L248.97,58.25L250.09,57.71L252.69,56.74L254.22,56.74zM77.33,125.05L78.27,126.50L78.28,128.75L77.71,129.15L76.82,129.13L75.80,129.39L74.91,129.39L74.22,128.88L73.72,127.72L73.71,126.33L74.12,125.78L75.43,125.19L76.03,124.58L76.59,124.58z"/></a></g><g id="hotspot.5" onmouseover="ShowHotSpot(evt,'5')" onmouseout="HideHotSpot(evt,'5')" onmousemove="ShowToolTip(evt,'5',&quot;SAM000056874&quot;)" opacity="0"><a xlink:href=""><path style="fill:#00ff00;fill-rule:evenodd" d="M102.86,191.63L102.86,195.29L286.39,195.29L286.39,191.63zM80.43,100.76L82.55,105.79L83.96,111.27L84.68,116.75L84.68,120.39L84.44,122.78L83.96,125.15L83.96,127.71L84.20,128.18L90.40,136.51L91.12,138.41L91.12,139.93L90.65,140.89L88.67,141.76L86.98,141.76L88.17,141.26L88.49,140.40L88.50,138.64L87.58,136.94L86.59,136.50L85.55,136.50L82.93,137.49L82.32,137.47L78.01,133.18L75.89,131.25L74.67,129.82L74.59,129.36L75.80,129.39L76.82,129.13L77.71,129.15L78.28,128.75L78.27,126.50L77.33,125.05L76.59,124.58L76.03,124.58L75.43,125.19L74.12,125.78L73.51,126.62L73.48,123.71L75.15,119.67L75.87,116.58L76.11,112.70L75.63,107.94L74.44,102.70L74.43,101.09L74.93,100.17L77.68,99.12L78.98,99.11zM77.09,122.91L77.06,123.75L76.59,123.69L76.51,122.68L76.82,122.64z"/></a></g><g id="hotspot.6" onmouseover="ShowHotSpot(evt,'6')" onmouseout="HideHotSpot(evt,'6')" onmousemove="ShowToolTip(evt,'6',&quot;SAM000056322&quot;)" opacity="0"><a xlink:href=""><path style="fill:#00ff00;fill-rule:evenodd" d="M102.86,195.29L102.86,198.96L286.39,198.96L286.39,195.29zM257.58,34.56L258.97,36.98L260.63,41.52L261.82,46.04L262.54,51.27L262.54,55.63L261.82,60.15L261.81,62.72L267.80,70.77L268.97,73.17L268.98,74.93L268.48,75.86L266.29,76.76L264.90,76.76L257.08,69.34L255.32,67.46L257.09,66.62L257.78,65.63L258.02,64.92L258.02,61.98L256.82,59.13L255.43,57.43L254.22,56.74L252.21,56.76L253.49,53.01L253.97,49.44L253.97,46.75L253.25,41.51L252.30,37.46L252.29,36.34L252.71,35.09L254.36,34.36L256.58,33.87z"/></a></g><g id="hotspot.7" onmouseover="ShowHotSpot(evt,'7')" onmouseout="HideHotSpot(evt,'7')" onmousemove="ShowToolTip(evt,'7',&quot;SAM000056345&quot;)" opacity="0"><a xlink:href=""><path style="fill:#00ff00;fill-rule:evenodd" d="M102.86,198.96L102.86,202.63L286.39,202.63L286.39,198.96zM60.88,130.08L61.58,130.80L62.55,132.69L62.55,134.93L61.77,136.06L60.15,136.02L57.24,137.00L55.88,136.98L54.67,135.57L54.43,134.86L54.42,132.51L55.39,131.82L58.16,130.78L58.89,129.84L59.71,129.62z"/></a></g><g id="ToolTip" visibility="hidden" opacity="0" transform="translate(0,0)"><rect id="ToolTipShadow" opacity="0.20" fill="black" stroke="none" x="0" y="0" width="30" height="8"/><rect id="ToolTipBG" fill="#ffffe1" stroke="black" x="0" y="0" width="30" height="8"/><text xml:space="preserve" id="ToolTipText" fill="black" x="0" y="0" width="30" height="8">tooltip</text></g></g></svg>
