<?xml version="1.0" encoding="UTF-8" standalone="no"?>
<svg xmlns="http://www.w3.org/2000/svg" xmlns:xlink="http://www.w3.org/1999/xlink" width="297.000mm" height="210.000mm" viewBox="0.000000 0.000000 297.000000 210.000000" stroke-linejoin="round" stroke-linecap="round" fill="none" fill-rule="evenodd"><desc>3DVIA Composer Export</desc><script type="text/ecmascript"><![CDATA[
if(typeof(top) != "undefined")
{
	top.ShowPaper = ShowPaper;
}
function ShowHotSpot(evt,hotspotid)
{
	var svgDocument = evt.target.ownerDocument;
	var strId = "hotspot."+hotspotid;
	var hotspot = svgDocument.getElementById(strId);
	if(hotspot)
		hotspot.setAttribute("opacity",".5");
}
function HideHotSpot(evt,hotspotid)
{
	var svgDocument = evt.target.ownerDocument;
	var strId = "hotspot."+hotspotid;
	var hotspot = svgDocument.getElementById(strId);
	if(hotspot)
		hotspot.setAttribute("opacity","0");

	var toolTip = svgDocument.getElementById('ToolTip');
	if(toolTip)
		toolTip.setAttribute("visibility","hidden");
}
function ShowToolTip(evt,hotspotid,strTooltip)
{
	if(strTooltip=="")
	return;

	// change text
	var svgDocument = evt.target.ownerDocument;
	var tiptext = svgDocument.getElementById('ToolTipText');
	if( !tiptext )
	return;
	tiptext.firstChild.nodeValue = " " + strTooltip + "  " ;

	// show tooltip before, else some refresh issue

	var toolTip = svgDocument.getElementById('ToolTip');
	if(!toolTip)
	return;

	toolTip.setAttribute("visibility","visible");
	toolTip.setAttribute("opacity",".95");

	// move tooltip
	// get viewbox

	var root = svgDocument.documentElement;
	var vbox = (root.getAttribute("viewBox")).split(' ');
	var x0 = parseFloat(vbox[0]);
	var y0 = parseFloat(vbox[1]);
	var vboxW = parseFloat(vbox[2]);
	var vboxH = parseFloat(vbox[3]);

	// get default width of svg

	var strW = root.getAttribute("width");
	var svgW = parseFloat(strW);
	if(strW.indexOf('mm') != -1)
	svgW *= 3.779;

	var strH = root.getAttribute("height");
	var svgH = parseFloat(strH);
	if(strH.indexOf('mm') != -1)
	svgH *= 3.779;  	// 96 dpi  -> 96/25.4 = 3.779

	// update the viewbox / width / height if svg is embedded in html with zoom fit all
	var realx0 = x0;
	var realy0 = y0;
	var realvboxW = vboxW;
	var realvboxH = vboxH;
	var realsvgW = svgW;
	var realsvgH = svgH;

	if ((typeof(top) == "undefined") || (typeof(top.svgctl1) != "undefined")) // embedded in html
	{
		// get window size in pxl

		svgW = window.innerWidth;
		svgH = window.innerHeight;

		// calculate real viewbox

		realsvgW = svgW;
		realsvgH = svgH;
		if((svgW / svgH) > (vboxW / vboxH))
		{
			realvboxW = (vboxH * svgW) / svgH;
			realvboxH = vboxH;
			realx0 = x0 - (realvboxW - vboxW)/2 ;
		}
		else
		{
			realvboxH = (vboxW * svgH) / svgW;
			realvboxW = vboxW;
			realy0 = y0 - (realvboxH - vboxH)/2 ;
		}
	}

	// get user zoom/pan

	var newScale = root.currentScale;
	var translation = root.currentTranslate;

	// transform pxl to user unit

	var xPos = (((evt.clientX+10- translation.x)/newScale) * realvboxW)/realsvgW  + realx0 ;
	var yPos = (((evt.clientY+5- translation.y)/newScale) * realvboxH)/ realsvgH  + realy0 ;
	var scaleForWidth = ( (1 / newScale) * realvboxH) / realsvgH;

	// move tooltip

	toolTip.setAttribute("transform", "translate(" + xPos + "," + yPos + ")" );

	// resize tooltip

	var fontsize = 12;
	tiptext.setAttribute("font-size",fontsize*scaleForWidth);
	tiptext.setAttribute("y", fontsize*scaleForWidth);
	var tipBG = svgDocument.getElementById('ToolTipBG');
	var outline = tiptext.getBBox();
	if(tipBG)
	{
		tipBG.setAttribute("stroke-width", 1*scaleForWidth);
		tipBG.setAttribute("width", Number(outline.width) );
		tipBG.setAttribute("height", Number(outline.height) + fontsize*.5*scaleForWidth );
	}
	var ToolTipShadow = svgDocument.getElementById('ToolTipShadow');
	if(ToolTipShadow)
	{
		ToolTipShadow.setAttribute("width", Number(outline.width) );
		ToolTipShadow.setAttribute("height", Number(outline.height) + fontsize*.5*scaleForWidth );
		ToolTipShadow.setAttribute("x", 3*scaleForWidth);
		ToolTipShadow.setAttribute("y", 3*scaleForWidth);
	}
}
function ShowPaper()
{
  var svgDocument = getDocument();
  var paper = svgDocument.getElementById("paperID");
  if(paper)
  {
    paper.setAttribute("transform","scale(1)");
    paper.setAttribute("opacity","1");
    paper.setAttribute("visibility","visible");
  }
  var svg = svgDocument.getRootElement();
  if(svg)
  {
    svg.setAttribute("width","307.000mm");
    svg.setAttribute("height","220.000mm");
    svg.setAttribute("viewBox","-5.000000 -5.000000 307.000000 220.000000");
  }
}
]]></script><defs/><g><path style="fill:#000000;fill-opacity:0.098;fill-rule:evenodd" d="M228.34,10.91L228.97,12.76L227.79,13.75L227.04,12.22L227.05,11.60L227.95,10.75zM235.40,15.79L237.05,19.61L238.25,24.13L238.74,30.31L239.92,32.69L239.93,35.41L238.92,37.08L238.66,37.09L238.97,35.63L238.73,33.41L238.27,32.42L237.21,35.80L237.57,37.54L236.73,38.43L236.37,38.43L236.09,37.95L236.10,36.33L237.06,32.77L237.30,28.65L236.82,24.60L235.87,21.03L234.21,17.22L232.33,13.86L232.03,13.42L232.06,12.80L232.70,12.20L233.26,12.18zM233.04,35.50L233.97,37.69L233.97,39.69L233.66,40.57L231.97,42.47L231.36,42.48L231.01,42.91L135.06,126.01L123.18,136.27L120.88,138.73L120.09,138.98L119.89,138.69L119.90,137.05L120.87,133.25L121.12,129.61L120.63,125.32L119.44,121.03L117.78,117.22L115.84,114.13L115.86,113.51L116.76,112.66L117.05,112.68L119.21,116.51L120.86,120.33L122.06,124.84L122.54,130.66L219.92,46.35L232.06,35.87L232.80,35.31zM246.84,45.79L247.22,45.83L252.33,41.52L251.98,43.65L247.55,47.55L247.06,48.49L245.86,49.69L245.88,47.69L245.37,46.75L245.38,46.13L246.59,45.33zM243.55,46.98L243.50,47.28L242.67,47.95L242.24,48.03L241.96,47.21L242.22,46.75L243.29,46.72zM112.78,113.16L111.96,114.14L111.53,114.22L110.86,112.95L110.87,112.07L111.76,111.47L112.04,111.49zM110.25,133.76L110.43,134.68L109.94,135.17L109.66,134.88L109.68,133.97L110.16,133.66zM111.11,134.21L110.79,134.21L110.79,133.89L111.11,133.89zM113.67,134.83L113.15,134.83L113.41,134.57L113.73,134.57zM115.82,135.29L116.10,135.33L116.14,135.61L115.87,135.56zM115.63,136.02L115.31,136.52L114.85,136.61L114.93,135.36L115.37,135.31zM114.70,137.92L114.70,139.22L113.49,140.42L113.49,138.03L114.14,137.42L114.43,137.45zM110.44,139.37L110.40,139.91L109.94,140.18L109.65,139.87L109.64,139.18L109.87,138.87L110.13,138.86zM115.63,141.02L115.31,141.52L114.85,141.61L114.93,140.36L115.37,140.31zM104.92,146.23L105.25,147.37L104.66,146.50L104.68,146.01zM130.88,146.97L130.81,149.15L129.67,150.41L129.68,148.41L129.09,146.99L130.09,145.99L130.38,146.02zM129.20,148.62L128.50,150.64L123.17,155.32L122.46,155.34L123.03,154.93L123.51,153.72L123.52,153.17L122.54,151.99L122.20,151.03L127.47,146.47L127.75,146.50zM104.69,147.95L104.39,149.15L103.51,149.93L102.06,151.13L101.58,149.13L101.28,148.65L103.90,146.48L104.19,146.49zM100.19,148.41L100.41,148.75L98.63,150.33L98.19,150.41L97.99,150.12L98.00,148.71L98.39,148.15L99.69,148.16zM105.39,148.75L105.25,147.37L105.38,147.47zM121.57,152.69L121.01,153.43L120.56,153.51L120.56,152.70L121.15,152.46zM95.88,155.79L95.88,157.31L95.41,158.27L95.16,160.64L94.45,162.09L94.45,158.65L93.46,156.51L93.49,155.90L94.84,154.33L95.16,154.33zM90.09,154.86L89.59,154.93L89.67,154.43L90.17,154.35zM89.68,156.27L90.86,156.99L89.68,158.01L87.79,159.69L87.08,158.64L87.05,157.28L87.44,156.49L88.42,156.01zM85.72,158.31L85.16,159.00L85.08,158.15L85.64,158.16zM92.58,161.73L92.55,162.05L92.06,162.33L91.95,161.73L92.34,161.48zM81.93,161.39L81.99,162.01L81.58,162.00L81.58,161.32zM86.35,164.13L86.82,165.56L86.83,167.78L86.33,168.97L86.35,165.79L85.64,163.89L85.40,163.64L85.31,162.92L85.63,162.88zM77.30,165.90L76.98,165.90L76.98,165.29L77.30,165.29zM84.24,169.24L83.99,169.49L83.90,168.61L84.20,168.62z"/><g id="Actor_7.0"><g style="stroke:#000000;stroke-width:0.176"><path d="M229.74,13.04L229.78,13.12L229.82,13.39L229.77,13.63L229.64,13.82L229.44,13.93L228.62,14.17L228.37,14.19L228.11,14.11L227.87,13.95L227.67,13.73L227.53,13.47L227.48,13.20L228.80,12.06"/><path d="M227.48,13.20L226.77,11.76"/><path d="M228.74,11.19L229.31,11.31L229.89,11.52L230.44,11.83L230.97,12.22L231.44,12.69L231.85,13.21L232.84,14.76L233.70,16.28L234.50,17.86L235.19,19.47L235.79,21.10L236.29,22.73L236.68,24.36L236.97,25.99L237.15,27.60L237.22,29.19L237.18,30.75L237.04,32.27L236.79,33.75L236.43,35.17L235.96,36.54L235.87,36.94L235.87,37.37L235.98,37.83L236.18,38.27L236.46,38.69L236.81,39.05L244.48,45.69L244.93,46.14L245.31,46.65L245.60,47.21L245.80,47.78L245.89,48.36L245.88,48.91L245.75,49.41L245.53,49.85L245.21,50.22"/><path d="M243.32,46.72L243.06,46.60L242.70,46.56L242.39,46.63L242.14,46.81L241.97,47.08L241.92,47.41L241.97,47.78L242.14,48.14L242.39,48.47L242.70,48.72L243.06,48.88L243.41,48.92L243.72,48.85L243.98,48.67L244.14,48.40L244.19,48.07L244.14,47.70L244.10,47.62"/></g><g style="stroke:#000000;stroke-width:0.529"><path d="M230.83,43.27L242.19,50.20L242.73,50.47L243.28,50.64L243.83,50.70L244.34,50.65L244.81,50.48L245.21,50.22L246.52,49.08L246.84,48.72L247.07,48.28L247.19,47.77L247.20,47.22L247.11,46.65L246.91,46.07L246.62,45.52L246.24,45.00L245.79,44.55L238.12,37.91L237.77,37.55L237.49,37.14L237.29,36.69L237.19,36.24L237.18,35.80L237.28,35.40L237.74,34.04L238.10,32.61L238.35,31.13L238.50,29.61L238.53,28.05L238.46,26.46L238.28,24.85L237.99,23.23L237.60,21.59L237.10,19.96L236.51,18.33L235.81,16.73L235.02,15.14L234.13,13.59L233.16,12.08L232.75,11.55L232.28,11.09L231.76,10.69L231.20,10.38L230.63,10.17L230.05,10.05L228.74,11.19L229.45,12.63L229.65,12.86L229.74,13.04L229.69,13.05L229.43,12.97L229.18,12.82L228.98,12.59L228.84,12.33L228.80,12.06L228.08,10.62L226.77,11.76L226.45,12.12L226.22,12.54L226.06,13.03L226.00,13.55L226.03,14.11L226.14,14.68L226.35,15.25L226.92,16.69L227.40,18.14L227.79,19.59L228.07,21.05L228.25,22.49L228.33,23.84L228.33,23.91L228.31,25.30L228.18,26.65L227.95,27.97L227.62,29.23L227.19,30.44L226.66,31.58L226.04,32.66L225.43,33.51"/><path d="M243.41,46.76L243.32,46.72L243.45,47.01L243.70,47.33L244.02,47.58L244.10,47.62L243.98,47.34L243.72,47.01L243.41,46.76"/></g></g><g id="Actor_5.0"><g style="stroke:#000000;stroke-width:0.176"><path d="M110.18,138.67L110.24,138.27L110.40,137.93L110.66,137.67L110.99,137.51L111.38,137.46L111.79,137.53L112.21,137.70L112.60,137.98L112.93,138.33L113.19,138.74L113.35,139.17L113.41,139.60L113.35,140.01L113.19,140.35L112.93,140.61L112.60,140.77L112.21,140.82L111.83,140.76L111.38,140.58L110.99,140.30L110.66,139.95L110.40,139.54L110.24,139.11L110.18,138.67"/><path d="M110.33,137.90L110.38,137.81L110.63,137.55L111.00,137.37L111.41,137.32L111.85,137.39L112.29,137.57L112.70,137.86L113.06,138.23L113.33,138.67L113.50,139.13L113.56,139.58L113.50,140.01L113.33,140.37L113.06,140.65L112.83,140.76"/><path d="M113.06,140.65L113.62,140.16L113.99,140.11L114.37,139.94L114.66,139.67L114.87,139.32L114.98,138.90L114.99,138.67L114.98,138.44L114.87,137.96L114.66,137.48L114.36,137.04L113.99,136.66L113.57,136.36L113.12,136.14L112.66,136.04L112.21,136.04L111.81,136.16L111.47,136.38L111.22,136.69L111.06,137.08L111.05,137.19L110.63,137.55"/><path d="M111.05,137.19L111.79,136.54L112.15,136.37L112.56,136.32L113.00,136.39L113.44,136.58L113.85,136.87L114.21,137.24L114.48,137.67L114.65,138.13L114.71,138.59L114.65,139.01L114.48,139.38L114.21,139.65L113.62,140.16"/><path d="M110.99,137.24L111.02,136.98L111.19,136.58L111.46,136.25L111.52,136.21L111.46,136.25"/><path d="M111.56,136.16L111.52,136.21L111.81,136.02L112.23,135.90L112.69,135.89L113.17,136.00L113.65,136.23L114.09,136.55L114.48,136.95L114.79,137.41L115.01,137.90L115.12,138.41L115.14,138.65L115.12,138.89L115.01,139.33L114.79,139.70L114.48,139.98L114.60,139.88"/><path d="M114.48,139.98L114.09,140.16L113.65,140.22L113.56,140.21"/><path d="M114.75,139.75L114.64,139.85"/><path d="M121.17,137.52L121.29,137.06L121.35,136.34L121.26,135.47"/><path d="M223.44,35.49L223.47,35.45L222.86,35.98"/><path d="M229.80,43.93L230.55,43.28L230.99,42.82L231.34,42.27L231.57,41.64L231.69,40.95L231.70,40.58L231.68,40.16L231.57,39.45L231.34,38.68L231.00,37.94L230.55,37.21L230.02,36.55L229.42,35.97L228.76,35.46L228.04,35.04L227.31,34.74L226.57,34.56L225.85,34.50L225.31,34.55L225.16,34.56L224.53,34.74L223.95,35.04L223.47,35.45"/><path d="M223.78,34.94L224.34,34.62L224.96,34.42L225.31,34.38L225.66,34.33L226.38,34.37L227.13,34.52L227.87,34.79L228.59,35.18L229.28,35.66L229.91,36.23L230.48,36.88L230.96,37.58L231.35,38.33L231.63,39.10L231.81,39.87L231.86,40.63L231.81,41.35L231.63,42.03L231.35,42.63L230.96,43.15L230.48,43.58"/><path d="M230.92,33.47L231.41,33.81L232.04,34.38L232.52,34.92L233.10,35.75L233.40,36.33"/><path d="M232.61,41.73L232.58,41.74"/></g><g style="stroke:#000000;stroke-width:0.529"><path d="M110.33,137.90L110.20,138.18L110.14,138.60L110.20,139.06L110.38,139.53L110.64,139.95L111.00,140.32L111.41,140.61L111.85,140.80L112.29,140.87L112.70,140.82L112.81,140.76"/><path d="M121.34,137.86L229.80,43.93L229.91,43.90L230.48,43.58L233.09,41.30L233.48,40.78L233.77,40.18L233.94,39.50L234.00,38.78L233.94,38.02L233.77,37.25L233.48,36.48L233.40,36.33"/><path d="M121.72,123.57L222.86,35.98L222.90,35.89L223.29,35.37L225.91,33.10L226.47,32.78L227.11,32.57L227.80,32.48L228.52,32.52L229.26,32.67L230.00,32.95L230.72,33.33L230.92,33.47"/></g></g><g id="Actor_6.0"><g style="stroke:#000000;stroke-width:0.176"><path d="M111.43,140.62L111.33,140.74L111.06,140.87L110.73,140.89L110.39,140.79L110.07,140.59L109.79,140.30L109.61,139.96L109.52,139.60L109.55,139.27L109.69,138.99L109.92,138.81L110.16,138.75"/><path d="M110.22,135.60L110.14,135.56L109.86,135.28L109.64,134.95L109.53,134.60L109.53,134.25L109.64,133.96L109.86,133.75L110.14,133.65L110.24,133.65L110.24,133.98L110.36,134.34L110.57,134.67L110.85,134.94L111.19,135.12L111.53,135.19L111.58,135.18L111.55,135.34L111.38,135.60L111.13,135.76L110.82,135.81L110.48,135.74L110.22,135.60"/><path d="M110.24,133.65L110.48,133.66L110.70,133.74L110.67,133.83L110.67,134.03L110.73,134.24L110.86,134.44L111.03,134.60L111.22,134.70L111.42,134.75L111.56,134.73L111.55,134.67L111.38,134.32L111.13,134.01L110.82,133.78L110.70,133.74"/><path d="M113.52,140.25L113.85,140.27L114.31,140.17L114.69,139.96L115.00,139.64L115.20,139.23L115.28,138.76L115.25,138.24L115.11,137.72L114.86,137.21L114.51,136.74L114.09,136.34L113.61,136.03L113.11,135.82L112.61,135.74L112.13,135.77L111.71,135.93L111.36,136.20L111.11,136.56L110.96,137.00L110.95,137.28"/><path d="M113.53,113.68L113.57,113.76L113.61,114.03L113.57,114.27L113.43,114.46L113.23,114.57L112.41,114.80L112.17,114.82L111.91,114.75L111.66,114.59L111.46,114.37L111.33,114.10L111.28,113.83L110.57,112.40"/><path d="M111.28,113.83L112.59,112.70"/><path d="M112.30,135.82L112.23,135.82L112.02,135.90"/><path d="M111.58,135.18L111.60,135.02L111.56,134.73"/><path d="M111.89,135.95L111.82,135.97L111.66,136.10"/><path d="M112.66,133.93L112.59,134.02L112.58,134.05"/><path d="M112.58,134.06L112.54,134.20"/><path d="M112.56,134.39L112.54,134.22"/><path d="M112.91,134.88L112.76,134.75L112.63,134.58L112.56,134.40"/><path d="M129.00,150.85L129.32,150.49L129.55,150.05L129.67,149.54L129.69,148.99L129.59,148.42L129.39,147.85L129.10,147.29L128.72,146.78L128.27,146.33L120.60,139.68L120.25,139.32L119.97,138.91L119.77,138.46L119.67,138.01L119.66,137.58L119.76,137.18L120.22,135.81L120.58,134.39L120.83,132.91L120.98,131.39L121.01,129.83L120.94,128.24L120.76,126.63L120.47,125.00L120.08,123.37L119.59,121.73L118.99,120.11L118.29,118.50L117.50,116.92L116.85,115.78L116.61,115.36L115.64,113.85L115.23,113.33L114.76,112.86L114.24,112.47L113.68,112.16L113.11,111.94L112.53,111.83"/><path d="M113.09,134.96L112.92,134.88"/><path d="M113.10,134.97L113.26,134.99"/><path d="M113.28,134.99L113.29,134.99L113.42,134.96"/><path d="M113.44,134.96L113.46,134.95L113.55,134.88"/><path d="M112.68,133.91L112.69,133.90L112.84,133.82L113.01,133.81L113.20,133.87L113.38,133.98L113.53,134.14L113.63,134.32L113.67,134.52L113.66,134.70L113.58,134.85L113.57,134.86"/><path d="M114.65,140.76L114.61,140.98L114.67,141.34L114.83,141.69L115.08,141.99L115.40,142.22L115.74,142.35L116.07,142.36L116.36,142.25L116.57,142.04L116.68,141.74L116.45,141.73L116.11,141.60L115.80,141.38L115.54,141.07L115.38,140.72L115.32,140.37L115.35,140.21L115.08,140.25L114.83,140.41L114.67,140.66L114.65,140.76"/><path d="M114.81,139.69L114.68,139.82L114.62,139.86"/><path d="M114.67,136.22L114.78,136.51L115.01,136.83L115.32,137.08L115.65,137.23L115.99,137.28L116.29,137.20L116.53,137.01L116.66,136.74L116.67,136.66L116.37,136.62L116.03,136.46L115.73,136.22L115.49,135.89L115.36,135.54L115.33,135.19L115.35,135.12L115.16,135.13L114.89,135.26L114.70,135.50L114.62,135.81L114.64,136.16L114.67,136.22"/><path d="M114.87,137.26L114.88,137.28"/><path d="M115.79,140.30L116.07,140.45L116.36,140.72L116.57,141.05L116.65,141.29L116.61,141.30L116.42,141.30L116.21,141.22L116.03,141.09L115.88,140.91L115.78,140.70L115.75,140.49L115.79,140.30L115.74,140.27L115.40,140.20L115.35,140.21"/><path d="M114.93,139.56L114.97,139.52L115.06,139.32"/><path d="M115.17,139.06L115.16,139.13L115.14,139.18"/><path d="M115.75,135.35L115.77,135.55L115.85,135.76L115.99,135.95L116.17,136.10L116.37,136.19L116.57,136.22L116.64,136.20L116.61,136.05L116.42,135.71L116.15,135.42L115.83,135.21L115.79,135.20L115.75,135.35"/><path d="M115.35,135.12L115.48,135.11L115.79,135.20"/><path d="M116.65,141.29L116.68,141.41L116.68,141.74"/><path d="M116.67,136.66L116.69,136.41L116.64,136.20"/></g><g style="stroke:#000000;stroke-width:0.529"><path d="M127.65,151.33L128.14,151.28L128.60,151.12L129.00,150.85L130.32,149.72L130.64,149.35L130.86,148.91L130.98,148.41L131.00,147.86L130.91,147.28L130.71,146.71L130.41,146.15L130.03,145.64L129.58,145.19L121.91,138.55L121.56,138.19L121.28,137.77L121.09,137.33L120.98,136.87L120.98,136.44L121.07,136.04L121.53,134.67L121.89,133.25L122.15,131.77L122.29,130.25L122.33,128.69L122.25,127.10L122.08,125.49L121.79,123.86L121.40,122.23L120.90,120.60L120.30,118.97L119.60,117.36L118.81,115.78L117.93,114.23L116.95,112.71L116.55,112.19L116.07,111.72L115.55,111.33L114.99,111.02L114.42,110.81L113.85,110.69L112.53,111.83L113.25,113.26L113.44,113.49L113.53,113.68L113.48,113.69L113.22,113.61L112.97,113.45L112.77,113.23L112.64,112.97L112.59,112.70L111.88,111.26L110.57,112.40L110.25,112.75L110.01,113.18L109.86,113.66L109.79,114.19L109.82,114.65L109.82,114.74L109.94,115.31L110.14,115.88L110.72,117.32L111.20,118.78L111.58,120.23L111.87,121.68L112.05,123.12L112.13,124.54L112.10,125.93L111.97,127.29L111.75,128.60L111.41,129.87L110.98,131.08L110.46,132.22L109.83,133.29L109.12,134.29L108.78,134.83L108.54,135.44L108.40,136.11L108.37,136.82L108.46,137.56L108.65,138.31L108.94,139.06L109.33,139.78L109.81,140.46L110.37,141.08L110.99,141.63L111.66,142.10L122.36,148.62"/><path d="M112.45,135.81L112.68,135.79L112.76,135.80"/><path d="M113.24,135.90L113.16,135.87L112.92,135.83"/><path d="M113.40,135.97L113.64,136.07L113.72,136.12"/><path d="M114.87,137.26L114.83,137.19L114.67,136.97"/><path d="M114.54,136.80L114.50,136.75L114.30,136.55"/><path d="M113.87,136.22L114.10,136.36L114.17,136.43"/><path d="M115.20,138.90L115.17,139.06"/><path d="M115.24,138.71L115.24,138.65"/><path d="M115.22,138.25L115.22,138.19L115.15,137.93"/><path d="M115.09,137.75L115.08,137.68L114.96,137.44"/></g></g><g id="Actor_4.0"><g style="stroke:#000000;stroke-width:0.176"><path d="M86.05,158.79L86.08,158.87L86.07,159.07L86.00,159.24L85.87,159.36L85.69,159.41L85.49,159.40L85.29,159.32L85.11,159.17L84.97,158.99L84.88,158.78L84.85,158.57L84.89,158.39L84.99,158.24L85.15,158.15L85.33,158.13L85.53,158.18"/><path d="M85.18,154.25L85.69,153.81L86.29,153.48L86.96,153.27L87.68,153.18L88.43,153.20L89.21,153.35L89.98,153.61L90.75,153.99L91.48,154.47L92.16,155.04L92.78,155.69L93.33,156.40L93.78,157.17L94.13,157.96L94.38,158.77L94.52,159.58L94.53,160.36L94.44,161.11L94.22,161.80L93.90,162.41L93.48,162.95"/><path d="M87.08,158.92L87.24,159.30L87.57,159.81L87.98,160.27L88.45,160.65L88.97,160.93L89.50,161.10L90.03,161.16L90.52,161.10L90.95,160.92L91.31,160.63L91.58,160.24L91.74,159.78L91.79,159.27L91.73,158.72L91.55,158.17L91.27,157.63L90.89,157.14L90.45,156.72L89.95,156.39L89.42,156.16L88.89,156.05L88.38,156.05L87.91,156.17L87.51,156.41L87.20,156.74L86.98,157.17L86.91,157.41L86.88,157.66L86.88,158.20L87.01,158.75L87.08,158.92"/><path d="M87.73,156.39L88.02,156.22L88.47,156.10L88.96,156.10L89.47,156.21L89.98,156.43L90.02,156.46L90.46,156.75L90.89,157.15L91.25,157.62L91.52,158.14L91.69,158.67L91.75,159.19L91.71,159.69L91.55,160.13L91.29,160.50L90.95,160.78L90.90,160.80L90.53,160.95L90.05,161.01L89.55,160.96L89.04,160.79L88.54,160.52L88.09,160.16L87.69,159.72L87.37,159.22L87.15,158.70L87.03,158.16L87.02,157.65L87.06,157.41L87.13,157.18L87.33,156.77L87.51,156.58L87.73,156.39L87.64,156.44L87.51,156.58"/><path d="M89.62,154.38L89.57,154.45L89.53,154.64L89.55,154.85L89.64,155.05L89.79,155.24L89.97,155.38L90.17,155.46L90.37,155.48L90.54,155.42L90.67,155.30L90.75,155.13L90.75,154.93L90.73,154.85L90.63,154.81L90.44,154.67L90.30,154.49L90.21,154.28L90.20,154.24L90.01,154.20L89.82,154.22L89.67,154.31L89.62,154.38"/><path d="M90.73,154.85L90.69,154.72L90.57,154.52L90.41,154.36L90.21,154.25L90.20,154.24"/><path d="M90.23,152.91L90.64,153.05L91.40,153.42L92.14,153.90L92.82,154.47L93.44,155.12L93.98,155.84L94.44,156.60L94.79,157.40L95.04,158.21L95.09,158.51"/><path d="M92.97,162.19L92.99,162.27L92.98,162.47L92.91,162.64L92.78,162.76L92.61,162.82L92.41,162.80L92.21,162.72L92.03,162.58L91.88,162.39L91.79,162.19L91.77,161.98L91.81,161.79L91.91,161.65L92.06,161.56L92.25,161.54L92.44,161.58"/></g><g style="stroke:#000000;stroke-width:0.529"><path d="M95.09,158.51L95.17,159.01L95.19,159.80L95.09,160.54L94.88,161.23L94.56,161.85L94.14,162.38L93.48,162.95L92.96,163.38L92.37,163.71L91.70,163.92L90.98,164.02L90.23,163.99L89.45,163.84L88.67,163.58L87.91,163.20L87.18,162.72L86.50,162.15L85.88,161.50L85.33,160.79L84.88,160.02L84.52,159.23L84.28,158.42L84.14,157.61L84.12,156.83L84.22,156.08L84.43,155.39L84.75,154.78L85.18,154.25L85.83,153.68L86.35,153.24L86.95,152.92L87.61,152.70L88.33,152.61L89.09,152.63L89.86,152.78L90.23,152.91"/><path d="M85.62,158.42L85.77,158.61L85.95,158.75L86.05,158.79L86.02,158.66L85.90,158.46L85.73,158.30L85.54,158.18L85.53,158.18L85.53,158.21L85.62,158.42"/><path d="M95.09,158.51L95.36,158.25L95.65,157.79L95.82,157.26L95.89,156.67L95.84,156.04L95.67,155.41L95.39,154.78L95.02,154.19L94.56,153.65L94.03,153.18L93.46,152.81L92.85,152.54L92.24,152.39L91.64,152.36L91.08,152.44L90.58,152.65L90.23,152.91"/><path d="M92.54,161.83L92.45,161.62L92.44,161.58L92.45,161.59L92.65,161.70L92.81,161.86L92.93,162.06L92.97,162.19L92.87,162.15L92.68,162.01L92.54,161.83"/></g></g><g id="Actor_4.1"><g style="stroke:#000000;stroke-width:0.176"><path d="M238.17,32.21L238.50,32.94L238.74,33.75L238.88,34.56L238.90,35.34L238.80,36.09L238.59,36.78L238.26,37.39L237.97,37.76"/></g><g style="stroke:#000000;stroke-width:0.529"><path d="M238.38,30.87L238.80,31.58L239.15,32.38L239.40,33.18L239.53,33.99L239.55,34.78L239.45,35.52L239.24,36.21L238.92,36.83L238.50,37.36L238.00,37.79"/></g></g><g id="Actor_8.0"><g style="stroke:#000000;stroke-width:0.176"><path d="M101.14,150.70L101.01,151.01L100.75,151.31L100.42,151.50L100.01,151.57L99.57,151.52L99.13,151.36L98.71,151.09L98.35,150.73L98.06,150.30L97.87,149.85L97.79,149.39L97.82,148.95L97.98,148.58L98.23,148.28L98.57,148.09L98.88,148.04L98.97,148.02L99.41,148.07L99.85,148.23L100.27,148.50L100.57,148.80L100.64,148.86L100.93,149.29L101.12,149.74L101.20,150.20L101.19,150.26"/><path d="M97.62,147.80L97.99,147.53L98.44,147.37L98.94,147.33L99.47,147.42L99.99,147.62L100.50,147.94L100.95,148.35L101.33,148.83L101.61,149.36L101.80,149.91L101.83,150.22"/><path d="M102.89,150.47L104.10,149.42L104.37,149.05L104.54,148.60L104.60,148.08L104.53,147.57L104.53,147.54L104.35,146.99L104.06,146.46L103.68,145.98L103.23,145.57L102.73,145.26L102.20,145.05L101.67,144.96L101.18,145.00L100.73,145.16L100.36,145.43L99.31,146.34"/><path d="M104.27,150.13L104.64,149.80L104.92,149.37L105.10,148.88L105.16,148.32L105.12,147.74L104.96,147.14L104.70,146.55L104.34,145.99L103.90,145.49L103.40,145.07L102.85,144.73L102.28,144.50L101.70,144.38L101.15,144.38L100.64,144.50L100.19,144.72"/></g><g style="stroke:#000000;stroke-width:0.529"><path d="M101.20,151.91L100.99,152.06L100.54,152.22L100.04,152.26L99.52,152.17L98.99,151.97L98.49,151.65L98.04,151.24L97.66,150.76L97.37,150.23L97.19,149.68L97.12,149.14L97.18,148.62L97.35,148.17L97.62,147.80L99.31,146.34"/><path d="M99.31,146.34L99.36,145.97L99.53,145.48L99.81,145.06L100.19,144.72L100.40,144.53L100.86,144.31L101.37,144.19L101.92,144.19L102.50,144.31L103.07,144.54L103.62,144.88L104.11,145.30L104.12,145.30L104.56,145.80L104.92,146.36L105.18,146.95L105.34,147.55L105.38,148.13L105.32,148.69L105.14,149.18L104.86,149.61L104.49,149.94L104.27,150.13L103.82,150.35L103.31,150.47L102.89,150.47"/><path d="M102.45,150.85L102.89,150.47"/></g></g><g id="Actor_2.0"><g style="stroke:#000000;stroke-width:0.176"><path d="M77.20,165.15L77.05,165.17L76.89,165.25L76.79,165.40L76.75,165.59L76.78,165.80L76.87,166.00L77.01,166.19L77.19,166.33L77.40,166.41L77.59,166.42L77.77,166.37L77.90,166.25L77.97,166.08L77.97,166.04"/><path d="M77.08,161.26L77.60,160.82L78.19,160.50L78.86,160.28L79.58,160.19L80.33,160.22L81.11,160.36L81.89,160.63L82.65,161.00L82.93,161.19L83.38,161.48L84.06,162.05L84.68,162.70L85.23,163.42L85.68,164.18L86.04,164.98L86.28,165.79L86.42,166.59L86.44,167.38L86.34,168.12L86.13,168.81L85.80,169.43L85.38,169.96"/><path d="M82.65,162.11L82.65,162.15L82.57,162.32L82.44,162.43L82.27,162.49L82.07,162.47L81.87,162.39L81.69,162.25L81.54,162.07L81.45,161.86L81.43,161.65L81.47,161.46L81.57,161.32L81.72,161.23L81.88,161.21"/><path d="M84.89,169.44L84.89,169.49L84.81,169.66L84.68,169.77L84.51,169.83L84.31,169.81L84.11,169.73L83.93,169.59L83.78,169.41L83.69,169.20L83.67,168.99L83.71,168.80L83.81,168.66L83.96,168.57L84.12,168.55"/></g><g style="stroke:#000000;stroke-width:0.529"><path d="M76.04,164.62L76.18,165.43L76.43,166.24L76.78,167.04L77.23,167.80L77.39,168.00L77.78,168.52L78.40,169.17L79.08,169.74L79.81,170.22L80.58,170.59L81.35,170.86L82.13,171.00L82.88,171.03L83.60,170.93L84.27,170.72L84.87,170.39L85.38,169.96L85.82,169.58L86.24,169.05L86.56,168.43L86.78,167.74L86.87,167.00L86.86,166.21L86.72,165.41L86.47,164.60L86.12,163.80L85.67,163.04L85.12,162.32L84.50,161.67L83.82,161.10L83.09,160.62L82.32,160.25L81.55,159.98L80.77,159.84L80.01,159.81L79.30,159.90L78.63,160.12L78.03,160.45L77.52,160.88L77.08,161.26L76.66,161.79L76.34,162.41L76.12,163.10L76.03,163.84L76.04,164.62"/><path d="M77.31,165.62L77.22,165.42L77.19,165.21L77.20,165.15L77.24,165.15L77.44,165.20L77.63,165.31L77.80,165.47L77.92,165.67L77.98,165.88L77.97,166.04L77.83,166.03L77.63,165.95L77.45,165.81L77.31,165.62"/><path d="M81.87,161.27L81.89,161.48L81.98,161.69L82.13,161.87L82.31,162.01L82.51,162.10L82.65,162.11L82.65,161.95L82.59,161.74L82.48,161.54L82.31,161.37L82.12,161.26L81.91,161.21L81.88,161.21L81.87,161.27"/><path d="M84.10,168.61L84.13,168.82L84.21,168.99L84.22,169.03L84.37,169.21L84.55,169.35L84.75,169.43L84.89,169.44L84.89,169.29L84.83,169.08L84.72,168.88L84.55,168.71L84.36,168.60L84.15,168.55L84.12,168.55L84.10,168.61"/></g></g><g id="Actor_2.1"><g style="stroke:#000000;stroke-width:0.176"><path d="M238.38,30.87L238.80,31.58L239.15,32.38L239.40,33.19L239.53,33.99L239.55,34.78L239.45,35.52L239.24,36.21L238.92,36.83L238.50,37.36"/></g><g style="stroke:#000000;stroke-width:0.529"><path d="M238.50,37.36L238.94,36.98L239.36,36.45L239.68,35.83L239.89,35.14L239.99,34.40L239.97,33.61L239.84,32.81L239.59,32.00L239.24,31.20L238.78,30.44L238.46,30.01"/></g></g><g id="Actor_1.0"><g style="stroke:#000000;stroke-width:0.176"><path d="M112.55,134.32L112.55,134.32"/><path d="M112.61,134.52L112.61,134.52"/><path d="M112.66,133.92L112.79,133.84L112.95,133.81L112.98,133.82L113.13,133.84L113.30,133.92L113.46,134.06L113.58,134.22L113.65,134.40L113.67,134.55L113.68,134.59L113.64,134.75L113.56,134.88"/><path d="M113.17,134.98L113.17,134.98"/><path d="M112.99,134.91L112.99,134.92"/></g><g style="stroke:#000000;stroke-width:0.529"><path d="M112.99,134.91L112.91,134.88L112.76,134.75L112.64,134.58L112.61,134.52"/><path d="M112.55,134.32L112.56,134.40L112.61,134.52"/><path d="M112.66,133.92L112.57,134.05L112.54,134.22L112.55,134.32"/><path d="M113.17,134.98L113.09,134.96L112.99,134.92"/><path d="M113.17,134.98L113.26,134.99L113.42,134.97L113.56,134.88"/></g></g><g id="Actor_3.0"><g style="stroke:#000000;stroke-width:0.176"><path d="M127.54,146.37L121.98,151.18L121.57,151.18L121.18,151.17L120.74,151.14L120.33,151.15L119.95,151.26L119.62,151.46L119.36,151.74L119.18,152.08L119.09,152.47L119.08,152.91L119.17,153.37L119.35,153.82L119.60,154.24L119.92,154.62L120.30,154.95L120.72,155.21L121.16,155.39L121.58,155.47L121.99,155.46L122.37,155.35L122.70,155.15L122.96,154.87L123.14,154.53L123.09,154.66L122.99,154.97L122.89,155.28L122.83,155.51"/><path d="M120.57,153.69L120.43,153.42L120.38,153.24L120.36,153.15L120.38,152.89L120.48,152.68L120.66,152.53L120.89,152.47L121.15,152.50L121.41,152.61L121.65,152.81L121.83,153.05L121.94,153.32L121.96,153.59L121.90,153.83L121.76,154.02L121.55,154.12L121.30,154.14L121.04,154.07L120.78,153.91L120.57,153.69"/><path d="M121.98,151.18L122.22,151.60L122.47,152.00L122.72,152.37L122.97,152.79L123.15,153.24L123.23,153.70L123.23,154.14L123.14,154.53L123.29,154.15L123.42,153.83L123.58,153.44L123.29,153.11L123.02,152.77L122.76,152.43L122.72,152.37L122.40,151.99L122.02,151.66L121.60,151.40L121.16,151.22L120.74,151.14L120.37,151.10L120.32,151.10L120.00,151.05L119.63,150.99"/><path d="M123.58,153.44L129.14,148.63"/></g><g style="stroke:#000000;stroke-width:0.529"><path d="M119.32,153.82L119.09,153.45L118.87,153.05L118.97,152.72L119.07,152.40L119.18,152.08L119.32,151.72L119.46,151.38L119.63,150.99L125.18,146.18L125.59,146.18L125.99,146.19L126.43,146.21L126.80,146.25L126.84,146.26L127.17,146.30L127.54,146.37L127.83,146.70L128.11,147.04L128.36,147.38L128.41,147.44L128.66,147.81L128.90,148.21L129.14,148.63L129.04,148.96L128.95,149.26L128.83,149.60L128.70,149.94L128.56,150.29L128.38,150.70L122.83,155.51L122.38,155.51L121.97,155.49L121.58,155.47L121.16,155.42L120.81,155.37L120.47,155.31L120.16,154.95L119.87,154.60L119.60,154.24L119.56,154.18L119.32,153.82"/></g></g><g id="Actor_3.1"><g style="stroke:#000000;stroke-width:0.176"><path d="M243.55,46.87L243.55,46.88L243.76,47.18L243.99,47.38"/><path d="M245.09,43.95L250.30,39.44"/><path d="M252.21,41.45L246.90,46.05"/></g><g style="stroke:#000000;stroke-width:0.529"><path d="M244.14,43.13L248.08,39.72L248.51,39.64L248.88,39.57L249.26,39.52L249.60,39.48L249.94,39.45L250.06,39.45L250.30,39.44L250.65,39.73L250.97,40.03L251.28,40.33L251.33,40.39L251.63,40.72L251.66,40.76L251.92,41.07L252.21,41.45L252.20,41.79L252.17,42.13L252.13,42.54L252.07,42.92L251.99,43.32L251.90,43.75L247.17,47.85"/></g></g><g id="PMI8.0"><g><path style="stroke:#ff0000;stroke-width:0.301;stroke-opacity:0.98" d="M103.10,174.80L101.76,150.23"/></g><g><path style="fill:#ff0000;fill-opacity:0.980" d="M102.63,150.23L102.63,150.14L102.62,150.06L102.60,149.98L102.57,149.90L102.53,149.82L102.49,149.75L102.44,149.68L102.38,149.61L102.31,149.56L102.25,149.51L102.17,149.46L102.10,149.43L102.02,149.40L101.93,149.38L101.85,149.36L101.76,149.36L101.68,149.36L101.59,149.38L101.51,149.40L101.43,149.43L101.35,149.46L101.28,149.51L101.21,149.56L101.15,149.61L101.09,149.68L101.04,149.75L101.00,149.82L100.96,149.90L100.93,149.98L100.91,150.06L100.90,150.14L100.90,150.23L100.90,150.31L100.91,150.40L100.93,150.48L100.96,150.56L101.00,150.64L101.04,150.71L101.09,150.78L101.15,150.84L101.21,150.90L101.28,150.95L101.35,150.99L101.43,151.03L101.51,151.06L101.59,151.08L101.68,151.09L101.76,151.10L101.85,151.09L101.93,151.08L102.02,151.06L102.10,151.03L102.17,150.99L102.25,150.95L102.31,150.90L102.38,150.84L102.44,150.78L102.49,150.71L102.53,150.64L102.57,150.56L102.60,150.48L102.62,150.40L102.63,150.31z"/></g><g><path style="fill:#ffffff" d="M107.27,178.75L107.25,178.36L107.19,177.98L107.10,177.60L106.97,177.24L106.80,176.89L106.60,176.55L106.37,176.24L106.11,175.95L105.82,175.69L105.51,175.46L105.18,175.26L104.83,175.10L104.46,174.97L104.09,174.87L103.70,174.82L103.32,174.80L102.93,174.82L102.55,174.87L102.17,174.97L101.81,175.10L101.45,175.26L101.12,175.46L100.81,175.69L100.52,175.95L100.26,176.24L100.03,176.55L99.83,176.89L99.67,177.24L99.54,177.60L99.44,177.98L99.39,178.36L99.37,178.75L99.39,179.14L99.44,179.52L99.54,179.89L99.67,180.26L99.83,180.61L100.03,180.94L100.26,181.25L100.52,181.54L100.81,181.80L101.12,182.03L101.45,182.23L101.81,182.40L102.17,182.53L102.55,182.62L102.93,182.68L103.32,182.70L103.70,182.68L104.09,182.62L104.46,182.53L104.83,182.40L105.18,182.23L105.51,182.03L105.82,181.80L106.11,181.54L106.37,181.25L106.60,180.94L106.80,180.61L106.97,180.26L107.10,179.89L107.19,179.52L107.25,179.14z"/><path style="stroke:#ff0000;stroke-width:0.250;stroke-opacity:0.98" d="M107.27,178.75L107.25,178.36L107.19,177.98L107.10,177.60L106.97,177.24L106.80,176.89L106.60,176.55L106.37,176.24L106.11,175.95L105.82,175.69L105.51,175.46L105.18,175.26L104.83,175.10L104.46,174.97L104.09,174.87L103.70,174.82L103.32,174.80L102.93,174.82L102.55,174.87L102.17,174.97L101.81,175.10L101.45,175.26L101.12,175.46L100.81,175.69L100.52,175.95L100.26,176.24L100.03,176.55L99.83,176.89L99.67,177.24L99.54,177.60L99.44,177.98L99.39,178.36L99.37,178.75L99.39,179.14L99.44,179.52L99.54,179.89L99.67,180.26L99.83,180.61L100.03,180.94L100.26,181.25L100.52,181.54L100.81,181.80L101.12,182.03L101.45,182.23L101.81,182.40L102.17,182.53L102.55,182.62L102.93,182.68L103.32,182.70L103.70,182.68L104.09,182.62L104.46,182.53L104.83,182.40L105.18,182.23L105.51,182.03L105.82,181.80L106.11,181.54L106.37,181.25L106.60,180.94L106.80,180.61L106.97,180.26L107.10,179.89L107.19,179.52L107.25,179.14z"/><text xml:space="preserve" fill="#000000" stroke-width="0" x="102.07" y="180.48" font-size="4.48" opacity="1.00" font-family="Microsoft Sans Serif">8</text></g></g><g/><g id="paperID" visibility="hidden" opacity="0.00" transform="scale(0.000100)"><path style="stroke:#000000;stroke-width:0.500;fill:#e6e6e6;fill-rule:evenodd" d="M-2000.00,-2000.00L2297.00,-2000.00L2297.00,2210.00L-2000.00,2210.00zM0.00,0.00L297.00,0.00L297.00,210.00L0.00,210.00z"/><path style="fill:#000000;fill-opacity:0.118" d="M3.00,210.00L297.00,210.00L297.00,3.00L300.00,3.00L300.00,213.00L3.00,213.00z"/></g><g><g><path style="stroke:#000000;stroke-width:0.353;fill:#f0f0ff" d="M127.08,172.15L270.31,172.15L270.31,175.82L127.08,175.82z"/><text xml:space="preserve" fill="#000000" stroke-width="0" x="128.49" y="174.97" font-size="2.64" opacity="1.00" font-family="MS Shell Dlg" font-weight="bold">ID BOM</text><text xml:space="preserve" fill="#000000" stroke-width="0" x="140.89" y="174.97" font-size="2.62" opacity="1.00" font-family="MS Shell Dlg" font-weight="bold">Qtà</text><text xml:space="preserve" fill="#000000" stroke-width="0" x="148.05" y="174.97" font-size="2.66" opacity="1.00" font-family="MS Shell Dlg" font-weight="bold">Codice (config)</text><text xml:space="preserve" fill="#000000" stroke-width="0" x="169.39" y="174.97" font-size="2.65" opacity="1.00" font-family="MS Shell Dlg" font-weight="bold">Codice</text><text xml:space="preserve" fill="#000000" stroke-width="0" x="185.39" y="174.97" font-size="2.66" opacity="1.00" font-family="MS Shell Dlg" font-weight="bold">Descrizione1 (config)</text><text xml:space="preserve" fill="#000000" stroke-width="0" x="214.06" y="174.97" font-size="2.65" opacity="1.00" font-family="MS Shell Dlg" font-weight="bold">Descrizione1</text><text xml:space="preserve" fill="#000000" stroke-width="0" x="237.09" y="174.97" font-size="2.67" opacity="1.00" font-family="MS Shell Dlg" font-weight="bold">CodiceGestionale (config)</text><path style="stroke:#000000;stroke-width:0.353" d="M139.48,172.15L139.48,175.82"/><path style="stroke:#000000;stroke-width:0.353" d="M146.64,172.15L146.64,175.82"/><path style="stroke:#000000;stroke-width:0.353" d="M167.98,172.15L167.98,175.82"/><path style="stroke:#000000;stroke-width:0.353" d="M183.98,172.15L183.98,175.82"/><path style="stroke:#000000;stroke-width:0.353" d="M212.65,172.15L212.65,175.82"/><path style="stroke:#000000;stroke-width:0.353" d="M235.68,172.15L235.68,175.82"/></g><g id="Line8"><path style="stroke:#000000;stroke-width:0.353;fill:#ffffff" d="M127.08,175.82L270.31,175.82L270.31,179.49L127.08,179.49z"/><text xml:space="preserve" fill="#000000" stroke-width="0" x="128.49" y="178.64" font-size="2.56" opacity="1.00" font-family="MS Shell Dlg">8</text><text xml:space="preserve" fill="#000000" stroke-width="0" x="140.89" y="178.64" font-size="2.62" opacity="1.00" font-family="MS Shell Dlg">2</text><text xml:space="preserve" fill="#000000" stroke-width="0" x="148.05" y="178.64" font-size="2.76" opacity="1.00" font-family="MS Shell Dlg">TP05146D</text><text xml:space="preserve" fill="#000000" stroke-width="0" x="169.39" y="178.64" font-size="2.76" opacity="1.00" font-family="MS Shell Dlg">TP05146D</text><text xml:space="preserve" fill="#000000" stroke-width="0" x="185.39" y="178.64" font-size="2.74" opacity="1.00" font-family="MS Shell Dlg">BOCCOLA FIPS</text><text xml:space="preserve" fill="#000000" stroke-width="0" x="214.06" y="178.64" font-size="2.74" opacity="1.00" font-family="MS Shell Dlg">BOCCOLA FIPS</text><text xml:space="preserve" fill="#000000" stroke-width="0" x="237.09" y="178.64" font-size="-1.#J" opacity="1.00" font-family="MS Shell Dlg"></text><path style="stroke:#000000;stroke-width:0.353" d="M139.48,175.82L139.48,179.49"/><path style="stroke:#000000;stroke-width:0.353" d="M146.64,175.82L146.64,179.49"/><path style="stroke:#000000;stroke-width:0.353" d="M167.98,175.82L167.98,179.49"/><path style="stroke:#000000;stroke-width:0.353" d="M183.98,175.82L183.98,179.49"/><path style="stroke:#000000;stroke-width:0.353" d="M212.65,175.82L212.65,179.49"/><path style="stroke:#000000;stroke-width:0.353" d="M235.68,175.82L235.68,179.49"/></g></g><g id="hotspot.0" onmouseover="ShowHotSpot(evt,'0')" onmouseout="HideHotSpot(evt,'0')" onmousemove="ShowToolTip(evt,'0',&quot;SAM000056345&quot;)" opacity="0"><a xlink:href=""><path style="fill:#00ff00;fill-rule:evenodd" d="M127.08,175.82L127.08,179.49L270.31,179.49L270.31,175.82zM104.47,145.53L105.40,147.45L105.41,148.74L105.09,149.38L104.20,150.16L102.94,150.55L102.22,151.05L103.49,173.41L103.65,174.68L104.92,175.08L106.37,176.25L107.31,177.69L107.31,179.93L106.75,181.04L105.84,182.03L104.62,182.72L102.05,182.71L100.89,181.97L99.66,180.57L99.44,179.61L99.43,178.00L100.14,176.57L101.51,175.32L102.80,174.71L101.60,151.74L101.27,151.95L99.19,152.00L98.03,151.26L97.29,149.86L97.28,148.47L99.45,146.11L100.04,144.81L100.78,144.35L102.79,144.35z"/></a></g><g id="ToolTip" visibility="hidden" opacity="0" transform="translate(0,0)"><rect id="ToolTipShadow" opacity="0.20" fill="black" stroke="none" x="0" y="0" width="30" height="8"/><rect id="ToolTipBG" fill="#ffffe1" stroke="black" x="0" y="0" width="30" height="8"/><text xml:space="preserve" id="ToolTipText" fill="black" x="0" y="0" width="30" height="8">tooltip</text></g></g></svg>
